<?xml version="1.0"?>
<svg xmlns="http://www.w3.org/2000/svg" xmlns:xlink="http://www.w3.org/1999/xlink" version="1.1" id="Capa_1" x="0px" y="0px" viewBox="0 0 512 512" style="enable-background:new 0 0 512 512;" xml:space="preserve" width="512px" height="512px" class=""><g><g>
	<path style="fill:#FFFFFF" d="M186,136v20h-60v-20c0-11.05,8.95-20,20-20h20C177.05,116,186,124.95,186,136z" data-original="#F7812F" class="active-path" data-old_color="#ffffff"/>
	<path style="fill:#FFFFFF" d="M386,136v20h-60v-20c0-11.05,8.95-20,20-20h20C377.05,116,386,124.95,386,136z" data-original="#F7812F" class="active-path" data-old_color="#ffffff"/>
</g><path style="fill:#FFFFFF" d="M502,196v240c0,22.09-17.91,40-40,40H50c-22.09,0-40-17.91-40-40V196c0-22.09,17.91-40,40-40h412  C484.09,156,502,173.91,502,196z" data-original="#EFEFEF" class="" data-old_color="#ffffff"/><g>
	<path style="fill:#FCCA6E" d="M90.01,156c0,44.18-35.82,80-80,80H10v-40c0-22.09,17.91-40,40-40H90.01z" data-original="#FAB83F" class="" data-old_color="#FCC766"/>
	<path style="fill:#FCCA6E" d="M502,196v40c-44.18,0-80-35.82-80-80h40C484.09,156,502,173.91,502,196z" data-original="#FAB83F" class="" data-old_color="#FCC766"/>
	<path style="fill:#FCCA6E" d="M90.01,476H50c-22.09,0-40-17.91-40-40v-40h0.01C54.19,396,90.01,431.82,90.01,476z" data-original="#FAB83F" class="" data-old_color="#FCC766"/>
	<path style="fill:#FCCA6E" d="M502,396v40c0,22.09-17.91,40-40,40h-40C422,431.82,457.82,396,502,396z" data-original="#FAB83F" class="" data-old_color="#FCC766"/>
</g><path style="fill:#FFFFFF" d="M356,76v5c-12.5,0-12.5-10-25-10c-12.49,0-12.49,10-24.99,10s-12.5-10-25-10s-12.5,10-25,10  s-12.5-10-25-10s-12.5,10-25,10S193.51,71,181,71c-12.5,0-12.5,10-25,10v-5c0-22.09,17.91-40,40-40h120C338.09,36,356,53.91,356,76z  " data-original="#75706B" class="" data-old_color="#ffffff"/><path d="M257,426c-5.521,0-10,4.49-10,10s4.479,10,10,10c5.51,0,10-4.49,10-10S262.51,426,257,426z" data-original="#000000" class="" style="fill:#000000"/><path d="M462,146h-66v-10c0-16.542-13.458-30-30-30V76c0-27.57-22.43-50-50-50H196c-27.57,0-50,22.43-50,50v30  c-16.542,0-30,13.458-30,30v10H50c-27.57,0-50,22.43-50,50v240c0,27.57,22.43,50,50,50h412c27.57,0,50-22.43,50-50V196  C512,168.43,489.57,146,462,146z M376,136v10h-40v-10c0-5.514,4.486-10,10-10h20C371.514,126,376,130.486,376,136z M166,106V89.201  c3.889-1.519,6.64-3.706,8.747-5.392C177.373,81.708,178.258,81,181,81c2.749,0,3.635,0.708,6.265,2.812  c3.58,2.862,8.989,7.188,18.745,7.188c9.758,0,15.167-4.328,18.747-7.191c2.626-2.101,3.511-2.809,6.253-2.809  s3.627,0.708,6.253,2.809c3.58,2.863,8.989,7.191,18.747,7.191c9.758,0,15.167-4.328,18.747-7.191  c2.626-2.101,3.511-2.809,6.253-2.809s3.627,0.708,6.253,2.809c3.58,2.863,8.989,7.191,18.747,7.191  c9.76,0,15.17-4.329,18.749-7.194C327.382,81.707,328.265,81,331,81c2.742,0,3.627,0.708,6.253,2.809  c2.107,1.685,4.858,3.873,8.747,5.392V106c-16.542,0-30,13.458-30,30v10H196v-10C196,119.458,182.542,106,166,106z M196,46h120  c12.239,0,22.783,7.371,27.444,17.904C340.307,62.279,336.298,61,331,61c-9.753,0-15.16,4.327-18.738,7.191  c-2.625,2.101-3.51,2.809-6.252,2.809s-3.627-0.708-6.253-2.809C296.177,65.328,290.768,61,281.01,61s-15.167,4.328-18.747,7.191  C259.637,70.292,258.752,71,256.01,71s-3.627-0.708-6.253-2.809C246.177,65.328,240.768,61,231.01,61s-15.167,4.328-18.747,7.191  C209.637,70.292,208.752,71,206.01,71s-3.627-0.708-6.254-2.809C196.175,65.328,190.763,61,181,61  c-5.298,0-9.307,1.279-12.444,2.904C173.217,53.371,183.761,46,196,46z M136,136c0-5.514,4.486-10,10-10h20c5.514,0,10,4.486,10,10  v10h-40V136z M20,196c0-16.542,13.458-30,30-30h29.284C74.885,196.609,50.616,220.877,20,225.275V196z M50,466  c-16.542,0-30-13.458-30-30v-29.276C50.613,411.12,74.885,435.389,79.284,466H50z M492,436c0,16.542-13.458,30-30,30h-29.274  c4.399-30.608,28.666-54.875,59.274-59.274V436z M492,386.559c-26.968,2.995-50.365,17.962-64.774,39.441H297c-5.51,0-10,4.49-10,10  s4.49,10,10,10h120.167c-2.26,6.372-3.838,13.065-4.608,20H99.451c-0.77-6.935-2.348-13.628-4.608-20H217c5.51,0,10-4.49,10-10  s-4.49-10-10-10H84.784C70.373,404.518,46.972,389.55,20,386.557V245.443c41.657-4.622,74.825-37.787,79.451-79.443h313.107  c4.626,41.652,37.789,74.815,79.441,79.441v141.118H492z M492,225.274c-30.608-4.399-54.875-28.666-59.274-59.274H462  c16.542,0,30,13.458,30,30V225.274z" data-original="#000000" class="" style="fill:#000000"/><path d="M256,266c5.522,0,10-4.478,10-10v-28.28c11.639,4.128,20,15.243,20,28.28c0,5.522,4.478,10,10,10s10-4.478,10-10  c0-24.146-17.205-44.348-40-48.994V196c0-5.522-4.478-10-10-10s-10,4.478-10,10v11.006c-22.795,4.646-40,24.847-40,48.994  c0,27.57,22.43,50,50,50c16.542,0,30,13.458,30,30c0,13.036-8.361,24.152-20,28.28V336c0-5.522-4.478-10-10-10s-10,4.478-10,10  v28.28c-11.639-4.128-20-15.243-20-28.28c0-5.522-4.478-10-10-10s-10,4.478-10,10c0,24.146,17.205,44.348,40,48.994V396  c0,5.522,4.478,10,10,10s10-4.478,10-10v-11.006c22.795-4.646,40-24.847,40-48.994c0-27.57-22.43-50-50-50  c-16.542,0-30-13.458-30-30c0-13.036,8.361-24.152,20-28.28V256C246,261.522,250.478,266,256,266z" data-original="#000000" class="" style="fill:#000000"/></g> </svg>
