<?xml version="1.0"?>
<svg xmlns="http://www.w3.org/2000/svg" xmlns:xlink="http://www.w3.org/1999/xlink" version="1.1" id="Capa_1" x="0px" y="0px" viewBox="0 0 512 512" style="enable-background:new 0 0 512 512;" xml:space="preserve" width="512px" height="512px" class=""><g><g>
	<path style="fill:#2C2828" d="M449.968,342.544h-15.212c-26.031,0-47.209,21.181-47.209,47.216   c0,28.806-23.428,52.24-52.224,52.24h-39.512c-8.284,0-15,6.716-15,15s6.716,15,15,15h39.512c45.338,0,82.224-36.893,82.224-82.24   c0-9.493,7.72-17.216,17.209-17.216h15.212c8.284,0,15-6.716,15-15S458.252,342.544,449.968,342.544z" data-original="#E2D7D5" class="" data-old_color="#413C3C"/>
	<path style="fill:#272B2C" d="M310.813,457v15h-73.54c-19.9,0-36.08-16.19-36.08-36.09c0-19.89,16.18-36.08,36.08-36.08h16.37   c0.88,0,1.75,0.02,2.62,0.06C286.573,401.26,310.813,426.35,310.813,457z" data-original="#55696E" class="active-path" data-old_color="#303536"/>
	<path style="fill:#EEE9E8;" d="M464.973,249.01c0,8.29-6.72,15-15,15c-8.29,0-15-6.71-15-15c0-98.62-80.15-178.87-178.71-179.01   h-0.26c-98.69,0-178.97,80.3-178.97,179.01c0,8.29-6.72,15-15,15c-8.29,0-15-6.71-15-15c0-115.25,93.74-209.01,208.97-209.01h0.26   C371.363,40.14,464.973,133.85,464.973,249.01z" data-original="#EEE9E8" class=""/>
	<path style="fill:#2C2828" d="M464.973,249.01c0,8.29-6.72,15-15,15c-8.29,0-15-6.71-15-15c0-98.62-80.15-178.87-178.71-179.01V40   C371.363,40.14,464.973,133.85,464.973,249.01z" data-original="#E2D7D5" class="" data-old_color="#413C3C"/>
	<g>
		<path style="fill:#272B2C" d="M0,268.045v109.488c0,18.754,15.257,34.011,34.011,34.011h0.098    c23.667,0,42.922-19.255,42.922-42.923V234.033h-43.02C15.257,234.033,0,249.291,0,268.045z" data-original="#55696E" class="active-path" data-old_color="#303536"/>
		<path style="fill:#1D2121" d="M477.989,234.033h-43.021v134.588c0,23.668,19.255,42.923,42.923,42.923h0.098    c18.754,0,34.011-15.257,34.011-34.011V268.045C512,249.291,496.743,234.033,477.989,234.033z" data-original="#323C3C" class="" data-old_color="#272C2C"/>
	</g>
	<g>
		<path style="fill:#FFBF00;" d="M358.336,179.022c-8.284,0-15,6.716-15,15v49.971h-36.329c-5.663,0-10.271-4.61-10.271-10.276    v-39.694c0-8.284-6.716-15-15-15s-15,6.716-15,15v39.694c0,22.208,18.065,40.276,40.271,40.276h36.329v49.972    c0,8.284,6.716,15,15,15s15-6.716,15-15V194.022C373.336,185.738,366.621,179.022,358.336,179.022z" data-original="#FFBF00" class=""/>
		<path style="fill:#FFD844" d="M195.29,278.984c27.555,0,49.973-22.422,49.973-49.981s-22.418-49.98-49.973-49.98h-41.626    c-8.284,0-15,6.716-15,15s6.716,15,15,15h41.626c11.013,0,19.973,8.963,19.973,19.98s-8.96,19.981-19.973,19.981    c-31.224,0-56.626,25.406-56.626,56.636c0,18.387,14.956,33.345,33.339,33.345h58.26c8.284,0,15-6.716,15-15s-6.716-15-15-15    h-58.26c-1.841,0-3.339-1.5-3.339-3.345C168.664,290.934,180.608,278.984,195.29,278.984z" data-original="#FFD844" class=""/>
	</g>
	<path style="fill:#1D2121" d="M310.813,457v15h-54.55v-72.11C286.573,401.26,310.813,426.35,310.813,457z" data-original="#323C3C" class="" data-old_color="#272C2C"/>
</g></g> </svg>
