<?xml version="1.0"?>
<svg xmlns="http://www.w3.org/2000/svg" height="512px" viewBox="-11 0 512 512.00043" width="512px" class=""><g><g fill-rule="evenodd"><path d="m369.339844 297.140625v132.601563l50.71875-29.28125v-132.605469zm0 0" fill="#c894c4" data-original="#C894C4" class="" style="fill:#FBF6FA" data-old_color="#EDE8EC"/><path d="m369.339844 429.742188v-132.601563l-48.117188 27.777344v132.605469zm0 0" fill="#ffba4a" data-original="#FFBA4A" class="" style="fill:#F9C46C" data-old_color="#F9C268"/><path d="m321.222656 457.523438v-132.605469l-16.003906 9.242187-59.902344-34.585937v201.777343zm0 0" fill="#c894c4" data-original="#C894C4" class="" style="fill:#FBF6FA" data-old_color="#EDE8EC"/><path d="m245.316406 501.351562v-201.777343l-59.90625 34.585937-16.003906-9.242187v132.605469zm0 0" fill="#c894c4" data-original="#C894C4" class="" style="fill:#FBF6FA" data-old_color="#EDE8EC"/><path d="m169.40625 457.523438v-132.605469l-48.113281-27.777344v132.601563zm0 0" fill="#ffba4a" data-original="#FFBA4A" class="" style="fill:#F9C46C" data-old_color="#F9C268"/><path d="m121.292969 429.742188v-132.601563l-50.722657-29.285156v132.605469zm0 0" fill="#c894c4" data-original="#C894C4" class="" style="fill:#FBF6FA" data-old_color="#EDE8EC"/><path d="m185.410156 63.210938-174.742187 100.886718 59.902343 34.585938 174.746094-100.886719zm0 0" fill="#c894c4" data-original="#C894C4" class="" style="fill:#FBF6FA" data-old_color="#EDE8EC"/><path d="m245.316406 97.796875-174.746094 100.886719 174.746094 100.890625zm0 0" fill="#9b51a0" data-original="#9B51A0" class="active-path" style="fill:#FBFAFA" data-old_color="#F3F0F0"/><path d="m245.316406 299.574219-174.746094-100.890625-59.902343 34.585937 59.902343 34.585938 114.839844 66.304687zm0 0" fill="#c894c4" data-original="#C894C4" class="" style="fill:#FBF6FA" data-old_color="#EDE8EC"/><path d="m245.316406 97.796875v201.777344l174.742188-100.890625zm0 0" fill="#9b51a0" data-original="#9B51A0" class="active-path" style="fill:#FBFAFA" data-old_color="#F3F0F0"/><path d="m420.058594 198.683594-174.742188 100.890625 59.902344 34.585937 114.839844-66.304687 59.90625-34.585938zm0 0" fill="#c894c4" data-original="#C894C4" class="" style="fill:#FBF6FA" data-old_color="#EDE8EC"/><path d="m245.316406 97.796875 174.742188 100.886719 59.90625-34.585938-174.746094-100.886718zm0 0" fill="#c894c4" data-original="#C894C4" class="" style="fill:#FBF6FA" data-old_color="#EDE8EC"/><path d="m254.390625 204.183594c-5.011719 5.011718-13.140625 5.011718-18.152344 0l-77.722656-77.726563c-26.480469-26.476562-26.480469-69.398437 0-95.875 23.449219-23.449219 60.144531-26.316406 86.800781-7.625 26.65625-18.691406 63.351563-15.824219 86.800782 7.625 26.476562 26.476563 26.476562 69.402344 0 95.878907zm0 0" fill="#fd4848" data-original="#FD4848" class="" style="fill:#E66262" data-old_color="#EA5B5B"/></g><path d="m485.296875 224.03125-43.90625-25.347656 43.90625-25.347656c3.300781-1.90625 5.332031-5.425782 5.332031-9.238282 0-3.808594-2.03125-7.332031-5.332031-9.234375l-122.863281-70.9375c.121094-1.792969.207031-3.589843.207031-5.40625 0-20.957031-8.164063-40.660156-22.984375-55.480469-25.265625-25.269531-63.902344-30.132812-94.339844-12.707031-30.4375-17.425781-69.074218-12.558593-94.34375 12.707031-14.820312 14.820313-22.980468 34.523438-22.980468 55.480469 0 1.816407.082031 3.613281.203124 5.40625l-30.492187 17.605469c-5.101563 2.945312-6.851563 9.46875-3.902344 14.570312 1.972657 3.421876 5.558594 5.335938 9.246094 5.335938 1.808594 0 3.640625-.460938 5.320313-1.433594l24.511718-14.152344c3.875 10.449219 9.980469 20.035157 18.09375 28.148438l3.773438 3.769531-84.175782 48.597657-38.574218-22.269532 12.667968-7.3125c5.101563-2.945312 6.851563-9.46875 3.90625-14.570312-2.945312-5.101563-9.46875-6.851563-14.570312-3.902344l-28.667969 16.550781c-3.300781 1.902344-5.332031 5.425781-5.332031 9.234375 0 3.8125 2.03125 7.332032 5.332031 9.238282l43.90625 25.347656-43.90625 25.347656c-3.300781 1.90625-5.332031 5.429688-5.332031 9.238281 0 3.808594 2.03125 7.332031 5.332031 9.238281l54.574219 31.507813v126.445313c0 3.8125 2.03125 7.332031 5.332031 9.238281l174.742188 100.886719c3.242187 1.886718 7.425781 1.886718 10.667969 0l174.742187-100.886719c3.300781-1.90625 5.332031-5.425781 5.332031-9.238281v-126.445313l54.574219-31.507813c3.300781-1.90625 5.332031-5.429687 5.332031-9.238281 0-3.808593-2.03125-7.332031-5.332031-9.238281zm-26.664063-59.933594-38.574218 22.269532-84.171875-48.597657c9.355469-9.355469 17.203125-19.359375 21.863281-31.917969zm-309.308593-85.578125c0-15.257812 5.941406-29.605469 16.734375-40.394531 11.085937-11.089844 25.707031-16.785156 40.421875-16.785156 11.375 0 22.804687 3.402344 32.710937 10.347656 3.675782 2.578125 8.570313 2.578125 12.246094 0 22.71875-15.925781 53.476562-13.222656 73.136719 6.4375 10.789062 10.789062 16.734375 25.136719 16.734375 40.394531 0 23.871094-14.71875 38.378907-30.335938 54l-64.121094 64.121094c-.847656.847656-2.226562.847656-3.074218 0l-77.722656-77.722656c-10.789063-10.792969-16.730469-25.136719-16.730469-40.398438zm209.347656 237.09375v107.972657l-26.78125 15.464843v-107.972656zm-48.113281 135.753907-54.578125 31.507812v-164.828125l43.90625 25.351563c1.652343.953124 3.492187 1.425781 5.332031 1.425781 1.84375 0 3.683594-.472657 5.335938-1.425781l.003906-.003907zm-151.816406-120.289063v107.972656l-26.785157-15.464843v-107.972657zm21.332031 12.316406.003906.003907c3.300781 1.902343 7.363281 1.902343 10.664063 0l43.90625-25.351563v164.828125l-54.574219-31.507812zm-9.714844-190.007812 58.335937 58.339843c1.792969 1.789063 3.808594 3.21875 5.953126 4.308594v65.0625l-142.746094-82.414062zm-99.789063 57.613281 153.414063 88.574219-38.574219 22.269531-153.414062-88.574219zm10.667969 75.332031 29.386719 16.964844v107.972656l-29.386719-16.964843zm328.15625 107.972657-29.390625 16.964843v-107.972656l29.390625-16.964844zm-104.175781-72.460938-38.574219-22.269531 66.378907-38.324219c5.101562-2.945312 6.847656-9.46875 3.902343-14.570312-2.945312-5.101563-9.46875-6.847657-14.570312-3.902344l-66.375 38.320312v-65.0625c2.144531-1.089844 4.160156-2.519531 5.953125-4.308594l58.335937-58.339843 78.457031 45.296875-12.667968 7.3125c-5.101563 2.945312-6.847656 9.46875-3.902344 14.570312 2.945312 5.101563 9.46875 6.847656 14.570312 3.902344l23.332032-13.46875 38.574218 22.269531zm0 0" data-original="#000000" class="" style="fill:#000000"/><path d="m66.128906 142.75c2.03125 0 4.089844-.582031 5.90625-1.792969 4.902344-3.265625 6.226563-9.890625 2.957032-14.789062-3.265626-4.902344-9.886719-6.226563-14.789063-2.960938l-.003906.003907c-4.902344 3.269531-6.222657 9.890624-2.957031 14.789062 2.054687 3.082031 5.4375 4.75 8.886718 4.75zm0 0" data-original="#000000" class="" style="fill:#000000"/><path d="m360.046875 221.039062c-5.269531 2.632813-7.40625 9.042969-4.773437 14.308594 1.871093 3.738282 5.636718 5.898438 9.550781 5.898438 1.601562 0 3.230469-.363282 4.761719-1.128906 5.269531-2.632813 7.402343-9.042969 4.769531-14.308594-2.632813-5.269532-9.039063-7.402344-14.308594-4.769532zm0 0" data-original="#000000" class="" style="fill:#000000"/></g> </svg>
