<?xml version="1.0" encoding="iso-8859-1"?>
<!-- Generator: Adobe Illustrator 19.0.0, SVG Export Plug-In . SVG Version: 6.00 Build 0)  -->
<svg version="1.1" id="Layer_1" xmlns="http://www.w3.org/2000/svg" xmlns:xlink="http://www.w3.org/1999/xlink" x="0px" y="0px"
	 viewBox="0 0 295.237 295.237" style="enable-background:new 0 0 295.237 295.237;" xml:space="preserve">
<g>
	<g>
		<path style="fill:#333333;" d="M228.57,180.952h-76.19v-16.5l25.371-16.914c22.905-0.829,41.295-19.671,41.295-42.776V100h-4.762
			c-22.738,0-41.348,17.819-42.724,40.219l-19.181,12.79V80.952h-9.524V129.2l-19.181-12.786
			C122.299,94.01,103.689,76.19,80.951,76.19h-4.762v4.762c0,23.105,18.39,41.948,41.295,42.776l25.371,16.914v40.31h-76.19v38.095
			h14.844l9.524,76.19h113.171l9.524-76.19h14.843v-38.095H228.57z M209.123,109.924c-2.224,14.257-13.514,25.548-27.771,27.771
			C183.576,123.438,194.867,112.148,209.123,109.924z M86.113,86.114c14.257,2.224,25.548,13.514,27.771,27.771
			C99.628,111.662,88.337,100.371,86.113,86.114z M195.794,285.714H99.442l-8.333-66.667h113.019L195.794,285.714z M219.048,209.524
			h-4.129h-134.6h-4.129v-19.048h142.857v19.048H219.048z"/>
		<circle style="fill:#F9BA48;" cx="147.618" cy="42.857" r="42.857"/>
		<path style="fill:#333333;" d="M152.38,57.143h-9.524c-2.624,0-4.762-2.133-4.762-4.762h-9.524c0,7.876,6.41,14.286,14.286,14.286
			v4.762h9.524v-4.762c7.876,0,14.286-6.41,14.286-14.286s-6.41-14.286-14.286-14.286h-9.524c-2.624,0-4.762-2.133-4.762-4.762
			s2.138-4.762,4.762-4.762h9.524c2.624,0,4.762,2.133,4.762,4.762h9.524c0-7.876-6.41-14.286-14.286-14.286v-4.762h-9.524v4.762
			c-7.876,0-14.286,6.41-14.286,14.286s6.41,14.286,14.286,14.286h9.524c2.624,0,4.762,2.133,4.762,4.762
			C157.143,55.01,155.005,57.143,152.38,57.143z"/>
		<polygon style="fill:#F9BA48;" points="290.475,47.619 280.951,47.619 280.951,38.095 271.428,38.095 271.428,47.619 
			261.904,47.619 261.904,57.143 271.428,57.143 271.428,66.667 280.951,66.667 280.951,57.143 290.475,57.143 		"/>
		<polygon style="fill:#F9BA48;" points="238.094,42.857 247.618,42.857 247.618,28.571 261.904,28.571 261.904,19.048 
			247.618,19.048 247.618,4.762 238.094,4.762 238.094,19.048 223.809,19.048 223.809,28.571 238.094,28.571 		"/>
		<polygon style="fill:#F9BA48;" points="252.38,66.667 242.856,66.667 242.856,76.19 233.332,76.19 233.332,85.714 242.856,85.714 
			242.856,95.238 252.38,95.238 252.38,85.714 261.904,85.714 261.904,76.19 252.38,76.19 		"/>
		<polygon style="fill:#F9BA48;" points="61.904,28.571 52.38,28.571 52.38,38.095 42.856,38.095 42.856,47.619 52.38,47.619 
			52.38,57.143 61.904,57.143 61.904,47.619 71.428,47.619 71.428,38.095 61.904,38.095 		"/>
		<polygon style="fill:#F9BA48;" points="28.57,57.143 19.047,57.143 19.047,71.429 4.761,71.429 4.761,80.952 19.047,80.952 
			19.047,95.238 28.57,95.238 28.57,80.952 42.856,80.952 42.856,71.429 28.57,71.429 		"/>
	</g>
</g>
<g>
</g>
<g>
</g>
<g>
</g>
<g>
</g>
<g>
</g>
<g>
</g>
<g>
</g>
<g>
</g>
<g>
</g>
<g>
</g>
<g>
</g>
<g>
</g>
<g>
</g>
<g>
</g>
<g>
</g>
</svg>
