<?xml version="1.0" standalone="no"?>
<!DOCTYPE svg PUBLIC "-//W3C//DTD SVG 1.1//EN" "http://www.w3.org/Graphics/SVG/1.1/DTD/svg11.dtd" >
<svg xmlns="http://www.w3.org/2000/svg" xmlns:xlink="http://www.w3.org/1999/xlink" version="1.1">
<metadata>
Created by FontForge 20170910 at Mon Nov 19 11:33:11 2018
 By Jimmy Wärting
Copyright \(c\) 2018 by Sharvanna Kenny. All rights reserved.
</metadata>
<defs>
<font id="Perspicacious-Medium" horiz-adv-x="307" >
  <font-face 
    font-family="Perspicacious Medium"
    font-weight="500"
    font-stretch="normal"
    units-per-em="1000"
    panose-1="0 0 6 0 0 0 0 0 0 0"
    ascent="800"
    descent="-200"
    x-height="500"
    cap-height="700"
    bbox="-474 -278.544 1105.36 991.286"
    underline-thickness="50"
    underline-position="-100"
    unicode-range="U+0020-25CA"
  />
<missing-glyph horiz-adv-x="538" 
d="M441 800v-1075h-341v1075h341zM358 728h-177v-35h69v-40h-70v-36h178v36h-71v40h71v35zM287 589h-107v-111h178v36h-71v75zM250 553v-39h-35v39h35zM358 448h-178v-35h70v-40h-70v-35h107v75h71v35zM358 384h-35v-71h-143v-37h178v108zM358 253h-108v-60h37v24h36v-50
h-108v86h-35v-122h178v122zM358 67h-178v-122h178v122zM323 31v-50h-108v50h108zM358 -79h-178v-36h75l-75 -50v-36h178v36h-110l76 50h34v36z" />
    <glyph glyph-name=".notdef" horiz-adv-x="538" 
d="M441 800v-1075h-341v1075h341zM358 728h-177v-35h69v-40h-70v-36h178v36h-71v40h71v35zM287 589h-107v-111h178v36h-71v75zM250 553v-39h-35v39h35zM358 448h-178v-35h70v-40h-70v-35h107v75h71v35zM358 384h-35v-71h-143v-37h178v108zM358 253h-108v-60h37v24h36v-50
h-108v86h-35v-122h178v122zM358 67h-178v-122h178v122zM323 31v-50h-108v50h108zM358 -79h-178v-36h75l-75 -50v-36h178v36h-110l76 50h34v36z" />
    <glyph glyph-name="A" unicode="A" horiz-adv-x="690" 
d="M30 0v32c33 0 48 13 56 36l212 632h94l212 -632c8 -23 23 -36 56 -36v-32h-207v32c33 0 63 13 55 36l-64 191h-198l-64 -191c-8 -23 22 -36 55 -36v-32h-207zM266 321h158l-79 236z" />
    <glyph glyph-name="Aacute" unicode="&#xc1;" horiz-adv-x="690" 
d="M444 979c48 -26 11 -75 -25 -120l-69 -93l-33 19l38 110c17 55 42 109 89 84zM30 0v32c33 0 48 13 56 36l212 632h94l212 -632c8 -23 23 -36 56 -36v-32h-207v32c33 0 63 13 55 36l-64 191h-198l-64 -191c-8 -23 22 -36 55 -36v-32h-207zM266 321h158l-79 236z" />
    <glyph glyph-name="Adieresis" unicode="&#xc4;" horiz-adv-x="690" 
d="M272 830c-28 0 -49 22 -49 49s21 49 49 49c26 0 48 -22 48 -49s-22 -49 -48 -49zM418 830c-27 0 -48 22 -48 49s21 49 48 49s49 -22 49 -49s-22 -49 -49 -49zM30 0v32c33 0 48 13 56 36l212 632h94l212 -632c8 -23 23 -36 56 -36v-32h-207v32c33 0 63 13 55 36l-64 191
h-198l-64 -191c-8 -23 22 -36 55 -36v-32h-207zM266 321h158l-79 236z" />
    <glyph glyph-name="Amacron" unicode="&#x100;" horiz-adv-x="690" 
d="M218 796v61h270v-61h-270zM30 0v32c33 0 48 13 56 36l212 632h94l212 -632c8 -23 23 -36 56 -36v-32h-207v32c33 0 63 13 55 36l-64 191h-198l-64 -191c-8 -23 22 -36 55 -36v-32h-207zM266 321h158l-79 236z" />
    <glyph glyph-name="B" unicode="B" horiz-adv-x="609" 
d="M50 0v32c33 0 56 12 56 36v563c0 24 -22 37 -55 37v32h291c189 0 239 -245 93 -340c187 -57 157 -360 -55 -360h-330zM201 400h111c169 0 173 222 -13 222h-98v-222zM201 81h147c168 0 148 226 -10 226h-137v-226z" />
    <glyph glyph-name="C" unicode="C" horiz-adv-x="714" 
d="M400 -2c-193 0 -352 165 -350 358c2 196 164 354 356 352c102 -1 194 -43 268 -124l-51 -42c-52 53 -123 85 -194 85c-151 1 -269 -122 -270 -272c0 -152 119 -279 269 -281c57 0 114 20 172 65l47 -46c-79 -63 -158 -95 -247 -95z" />
    <glyph glyph-name="Cacute" unicode="&#x106;" horiz-adv-x="714" 
d="M438 978c49 -26 11 -75 -24 -120l-70 -93l-32 19l38 110c17 55 42 109 88 84zM400 -2c-193 0 -352 165 -350 358c2 196 164 354 356 352c102 -1 194 -43 268 -124l-51 -42c-52 53 -123 85 -194 85c-151 1 -269 -122 -270 -272c0 -152 119 -279 269 -281
c57 0 114 20 172 65l47 -46c-79 -63 -158 -95 -247 -95z" />
    <glyph glyph-name="D" unicode="D" horiz-adv-x="697" 
d="M51 0v32c33 0 55 12 55 36v563c0 24 -23 36 -56 36v33h300c432 1 421 -700 0 -700h-299zM202 78h148c276 0 270 545 1 545h-148z" />
    <glyph glyph-name="E" unicode="E" horiz-adv-x="564" 
d="M50 0v32c33 0 56 12 56 36v564c0 24 -23 36 -56 36v32h464v-133h-32c0 33 -12 56 -36 56h-244v-188h95c24 0 37 22 37 55h32l-1 -207h-32c0 33 -12 56 -36 56h-95v-260h243c24 0 36 22 36 55h32v-134h-463z" />
    <glyph glyph-name="Eacute" unicode="&#xc9;" horiz-adv-x="564" 
d="M360 985c49 -26 11 -75 -24 -120l-70 -93l-32 19l38 110c17 55 42 109 88 84zM50 0v32c33 0 56 12 56 36v564c0 24 -23 36 -56 36v32h464v-133h-32c0 33 -12 56 -36 56h-244v-188h95c24 0 37 22 37 55h32l-1 -207h-32c0 33 -12 56 -36 56h-95v-260h243c24 0 36 22 36 55
h32v-134h-463z" />
    <glyph glyph-name="Edieresis" unicode="&#xcb;" horiz-adv-x="564" 
d="M209 830c-28 0 -49 22 -49 49s21 49 49 49c26 0 48 -22 48 -49s-22 -49 -48 -49zM355 830c-27 0 -48 22 -48 49s21 49 48 49s49 -22 49 -49s-22 -49 -49 -49zM50 0v32c33 0 56 12 56 36v564c0 24 -23 36 -56 36v32h464v-133h-32c0 33 -12 56 -36 56h-244v-188h95
c24 0 37 22 37 55h32l-1 -207h-32c0 33 -12 56 -36 56h-95v-260h243c24 0 36 22 36 55h32v-134h-463z" />
    <glyph glyph-name="Edotaccent" unicode="&#x116;" horiz-adv-x="564" 
d="M283 797c-43 0 -77 34 -77 77c0 42 34 76 77 76c42 0 76 -34 76 -76c0 -43 -34 -77 -76 -77zM50 0v32c33 0 56 12 56 36v564c0 24 -23 36 -56 36v32h464v-133h-32c0 33 -12 56 -36 56h-244v-188h95c24 0 37 22 37 55h32l-1 -207h-32c0 33 -12 56 -36 56h-95v-260h243
c24 0 36 22 36 55h32v-134h-463z" />
    <glyph glyph-name="Emacron" unicode="&#x112;" horiz-adv-x="564" 
d="M155 796v61h270v-61h-270zM50 0v32c33 0 56 12 56 36v564c0 24 -23 36 -56 36v32h464v-133h-32c0 33 -12 56 -36 56h-244v-188h95c24 0 37 22 37 55h32l-1 -207h-32c0 33 -12 56 -36 56h-95v-260h243c24 0 36 22 36 55h32v-134h-463z" />
    <glyph glyph-name="F" unicode="F" horiz-adv-x="564" 
d="M50 0v32c33 0 56 12 56 36v564c0 24 -23 36 -56 36v32h464v-134h-32c0 33 -12 56 -36 56h-244v-187h95c24 0 37 22 37 55h32l-1 -207h-32c0 33 -12 56 -36 56h-95v-271c0 -24 23 -36 56 -36v-32h-208z" />
    <glyph glyph-name="G" unicode="G" horiz-adv-x="719" 
d="M614 69c-249 -171 -567 -5 -564 287c3 299 333 449 563 283l-32 -52c-174 113 -421 -11 -422 -232c0 -188 170 -318 359 -232v154c0 24 -23 36 -56 36v32h207v-32c-33 0 -55 -12 -55 -36v-208z" />
    <glyph glyph-name="H" unicode="H" horiz-adv-x="679" 
d="M50 0v32c32 0 46 17 46 36v564c0 19 -14 36 -46 36v32h188v-32c-32 0 -46 -17 -46 -36v-229h295v229c0 19 -13 36 -45 36v32h187v-32c-32 0 -46 -17 -46 -36v-564c0 -19 14 -36 46 -36v-32h-187v32c32 0 45 17 45 36v263h-295v-263c0 -19 14 -36 46 -36v-32h-188z" />
    <glyph glyph-name="I" unicode="I" 
d="M50 0v32c33 0 56 12 56 36v564c0 24 -23 36 -56 36v32h207v-32c-33 0 -55 -12 -55 -36v-564c0 -24 22 -36 55 -36v-32h-207z" />
    <glyph glyph-name="Iacute" unicode="&#xcd;" 
d="M232 985c49 -26 11 -75 -24 -120l-70 -93l-32 19l38 110c17 55 42 109 88 84zM50 0v32c33 0 56 12 56 36v564c0 24 -23 36 -56 36v32h207v-32c-33 0 -55 -12 -55 -36v-564c0 -24 22 -36 55 -36v-32h-207z" />
    <glyph glyph-name="Imacron" unicode="&#x12a;" 
d="M27 796v61h270v-61h-270zM50 0v32c33 0 56 12 56 36v564c0 24 -23 36 -56 36v32h207v-32c-33 0 -55 -12 -55 -36v-564c0 -24 22 -36 55 -36v-32h-207z" />
    <glyph glyph-name="J" unicode="J" horiz-adv-x="394" 
d="M30 69l19 32c54 -59 147 -51 147 22v509c0 21 -17 37 -55 37v31h203v-31c-36 0 -55 -16 -55 -37l-1 -522c-4 -137 -205 -167 -258 -41z" />
    <glyph glyph-name="K" unicode="K" horiz-adv-x="676" 
d="M50 0v32c33 0 56 12 56 36v566c0 24 -23 36 -56 36v32h207v-32c-33 0 -55 -12 -55 -36v-259l260 256c17 17 -22 36 -55 36v32h215v-32c-24 0 -28 -6 -61 -39l-255 -257l295 -305c25 -26 33 -34 55 -34v-32h-229v32c33 0 73 18 55 36l-242 246l-38 -37v-209
c0 -24 22 -36 55 -36v-32h-207z" />
    <glyph glyph-name="L" unicode="L" horiz-adv-x="580" 
d="M50 0v32c33 0 56 12 56 36v565c0 24 -23 36 -56 36v32h207v-32c-33 0 -55 -12 -55 -36v-555h270c24 0 36 23 36 56h32v-134h-490z" />
    <glyph glyph-name="Lacute" unicode="&#x139;" horiz-adv-x="580" 
d="M368 985c49 -26 11 -75 -24 -120l-70 -93l-32 19l38 110c17 55 42 109 88 84zM50 0v32c33 0 56 12 56 36v565c0 24 -23 36 -56 36v32h207v-32c-33 0 -55 -12 -55 -36v-555h270c24 0 36 23 36 56h32v-134h-490z" />
    <glyph glyph-name="M" unicode="M" horiz-adv-x="805" 
d="M50 0v32c33 0 56 12 56 36v564c0 24 -23 36 -56 36v32h175l173 -401l173 401h184v-32c-33 0 -55 -12 -55 -36v-564c0 -24 22 -36 55 -36v-32h-207v32c33 0 56 12 56 36v501l-152 -356h-108l-142 335v-480c0 -24 22 -36 55 -36v-32h-207z" />
    <glyph glyph-name="N" unicode="N" horiz-adv-x="707" 
d="M50 0v32c33 0 56 12 56 36v564c0 24 -23 36 -56 36v32h165l290 -551l1 484c0 24 -23 36 -56 36v32h207v-32c-33 0 -55 -12 -55 -36l-3 -633h-108l-289 536v-468c0 -24 22 -36 55 -36v-32h-207z" />
    <glyph glyph-name="Nacute" unicode="&#x143;" horiz-adv-x="707" 
d="M432 985c49 -26 11 -75 -24 -120l-70 -93l-32 19l38 110c17 55 42 109 88 84zM50 0v32c33 0 56 12 56 36v564c0 24 -23 36 -56 36v32h165l290 -551l1 484c0 24 -23 36 -56 36v32h207v-32c-33 0 -55 -12 -55 -36l-3 -633h-108l-289 536v-468c0 -24 22 -36 55 -36v-32h-207
z" />
    <glyph glyph-name="Ntilde" unicode="&#xd1;" horiz-adv-x="707" 
d="M436 846c-49 0 -115 45 -160 45c-46 0 -37 -46 -66 -46c-50 0 -13 101 66 101c55 0 113 -46 161 -46c47 0 23 56 55 56c54 0 28 -110 -56 -110zM50 0v32c33 0 56 12 56 36v564c0 24 -23 36 -56 36v32h165l290 -551l1 484c0 24 -23 36 -56 36v32h207v-32
c-33 0 -55 -12 -55 -36l-3 -633h-108l-289 536v-468c0 -24 22 -36 55 -36v-32h-207z" />
    <glyph glyph-name="O" unicode="O" horiz-adv-x="758" 
d="M410 -5c-187 -15 -349 133 -368 326c-18 192 118 369 305 384c188 17 353 -130 370 -323c17 -197 -120 -370 -307 -387zM401 74c134 11 222 152 208 297c-13 149 -128 275 -254 266c-125 -10 -208 -156 -194 -301c12 -147 130 -272 240 -262z" />
    <glyph glyph-name="Oacute" unicode="&#xd3;" horiz-adv-x="758" 
d="M457 985c49 -26 11 -75 -24 -120l-70 -93l-32 19l38 110c17 55 42 109 88 84zM410 -5c-187 -15 -349 133 -368 326c-18 192 118 369 305 384c188 17 353 -130 370 -323c17 -197 -120 -370 -307 -387zM401 74c134 11 222 152 208 297c-13 149 -128 275 -254 266
c-125 -10 -208 -156 -194 -301c12 -147 130 -272 240 -262z" />
    <glyph glyph-name="Odieresis" unicode="&#xd6;" horiz-adv-x="758" 
d="M306 830c-28 0 -49 22 -49 49s21 49 49 49c26 0 48 -22 48 -49s-22 -49 -48 -49zM452 830c-27 0 -48 22 -48 49s21 49 48 49s49 -22 49 -49s-22 -49 -49 -49zM410 -5c-187 -15 -349 133 -368 326c-18 192 118 369 305 384c188 17 353 -130 370 -323
c17 -197 -120 -370 -307 -387zM401 74c134 11 222 152 208 297c-13 149 -128 275 -254 266c-125 -10 -208 -156 -194 -301c12 -147 130 -272 240 -262z" />
    <glyph glyph-name="Omacron" unicode="&#x14c;" horiz-adv-x="758" 
d="M252 796v61h270v-61h-270zM410 -5c-187 -15 -349 133 -368 326c-18 192 118 369 305 384c188 17 353 -130 370 -323c17 -197 -120 -370 -307 -387zM401 74c134 11 222 152 208 297c-13 149 -128 275 -254 266c-125 -10 -208 -156 -194 -301c12 -147 130 -272 240 -262z
" />
    <glyph glyph-name="P" unicode="P" horiz-adv-x="559" 
d="M50 0v32c33 0 56 12 56 36v564c0 24 -23 36 -56 36v32h279c237 0 241 -382 6 -382h-133v-250c0 -24 22 -36 55 -36v-32h-207zM202 389h125c139 0 141 241 0 241h-125v-241z" />
    <glyph glyph-name="Q" unicode="Q" horiz-adv-x="800" 
d="M727 382c11 -124 -40 -239 -126 -311l94 -90l-45 -46l-104 98c-38 -20 -80 -34 -126 -38c-187 -15 -349 133 -368 326c-18 192 118 369 305 384c188 17 353 -130 370 -323zM414 60c29 2 55 10 79 23l-82 78l46 47l88 -84c58 61 87 156 78 247c-12 149 -128 285 -260 274
s-214 -167 -200 -312c12 -147 127 -283 251 -273z" />
    <glyph glyph-name="R" unicode="R" horiz-adv-x="687" 
d="M313 700c126 0 195 -80 195 -201c0 -83 -41 -158 -118 -181c63 -80 118 -194 165 -242c24 -24 57 -35 82 -38v-52c-164 3 -158 12 -252 166c-41 67 -78 156 -124 156h-59v-240c0 -24 22 -36 55 -36v-32h-207v32c33 0 56 12 56 36v564c0 24 -23 36 -56 36v32h263zM320 388
c72 0 103 59 103 117s-32 125 -102 125h-119v-241z" />
    <glyph glyph-name="Racute" unicode="&#x154;" horiz-adv-x="687" 
d="M422 985c49 -26 11 -75 -24 -120l-70 -93l-32 19l38 110c17 55 42 109 88 84zM313 700c126 0 195 -80 195 -201c0 -83 -41 -158 -118 -181c63 -80 118 -194 165 -242c24 -24 57 -35 82 -38v-52c-164 3 -158 12 -252 166c-41 67 -78 156 -124 156h-59v-240
c0 -24 22 -36 55 -36v-32h-207v32c33 0 56 12 56 36v564c0 24 -23 36 -56 36v32h263zM320 388c72 0 103 59 103 117s-32 125 -102 125h-119v-241z" />
    <glyph glyph-name="S" unicode="S" horiz-adv-x="560" 
d="M44 69v139l45 1c12 -54 11 -75 33 -96c35 -32 72 -45 133 -43c59 2 139 23 139 100c0 75 -41 110 -174 172c-76 41 -159 91 -160 181c-1 111 95 177 212 177c60 0 106 -11 155 -40v-128h-38c0 57 -38 99 -115 98c-57 -1 -110 -27 -110 -75c0 -77 48 -92 139 -135
c93 -49 189 -90 190 -236c0 -132 -113 -193 -233 -193c-71 0 -154 18 -216 78z" />
    <glyph glyph-name="Sacute" unicode="&#x15a;" horiz-adv-x="560" 
d="M358 985c49 -26 11 -75 -24 -120l-70 -93l-32 19l38 110c17 55 42 109 88 84zM44 69v139l45 1c12 -54 11 -75 33 -96c35 -32 72 -45 133 -43c59 2 139 23 139 100c0 75 -41 110 -174 172c-76 41 -159 91 -160 181c-1 111 95 177 212 177c60 0 106 -11 155 -40v-128h-38
c0 57 -38 99 -115 98c-57 -1 -110 -27 -110 -75c0 -77 48 -92 139 -135c93 -49 189 -90 190 -236c0 -132 -113 -193 -233 -193c-71 0 -154 18 -216 78z" />
    <glyph glyph-name="T" unicode="T" horiz-adv-x="671" 
d="M40 566v135h591v-135h-32c0 33 -12 56 -36 56h-176v-554c0 -24 22 -36 55 -36v-32h-212v32c33 0 56 12 56 36v554h-178c-23 0 -36 -23 -36 -56h-32z" />
    <glyph glyph-name="U" unicode="U" horiz-adv-x="747" 
d="M50 668v32h207v-32c-33 0 -55 -12 -55 -36v-345c0 -117 44 -209 171 -209c126 0 171 81 171 209l1 345c0 25 -22 36 -55 36v32h207v-32c-33 0 -56 -12 -56 -36l-1 -342c-2 -228 -95 -299 -268 -299c-166 0 -267 71 -267 298l1 343c0 24 -23 36 -56 36z" />
    <glyph glyph-name="Uacute" unicode="&#xda;" horiz-adv-x="747" 
d="M452 985c49 -26 11 -75 -24 -120l-70 -93l-32 19l38 110c17 55 42 109 88 84zM50 668v32h207v-32c-33 0 -55 -12 -55 -36v-345c0 -117 44 -209 171 -209c126 0 171 81 171 209l1 345c0 25 -22 36 -55 36v32h207v-32c-33 0 -56 -12 -56 -36l-1 -342
c-2 -228 -95 -299 -268 -299c-166 0 -267 71 -267 298l1 343c0 24 -23 36 -56 36z" />
    <glyph glyph-name="Udieresis" unicode="&#xdc;" horiz-adv-x="747" 
d="M300 830c-28 0 -49 22 -49 49s21 49 49 49c26 0 48 -22 48 -49s-22 -49 -48 -49zM446 830c-27 0 -48 22 -48 49s21 49 48 49s49 -22 49 -49s-22 -49 -49 -49zM50 668v32h207v-32c-33 0 -55 -12 -55 -36v-345c0 -117 44 -209 171 -209c126 0 171 81 171 209l1 345
c0 25 -22 36 -55 36v32h207v-32c-33 0 -56 -12 -56 -36l-1 -342c-2 -228 -95 -299 -268 -299c-166 0 -267 71 -267 298l1 343c0 24 -23 36 -56 36z" />
    <glyph glyph-name="Umacron" unicode="&#x16a;" horiz-adv-x="747" 
d="M247 796v61h270v-61h-270zM50 668v32h207v-32c-33 0 -55 -12 -55 -36v-345c0 -117 44 -209 171 -209c126 0 171 81 171 209l1 345c0 25 -22 36 -55 36v32h207v-32c-33 0 -56 -12 -56 -36l-1 -342c-2 -228 -95 -299 -268 -299c-166 0 -267 71 -267 298l1 343
c0 24 -23 36 -56 36z" />
    <glyph glyph-name="Uring" unicode="&#x16e;" horiz-adv-x="747" 
d="M374 977c53 0 96 -43 96 -96s-43 -96 -96 -96s-96 43 -96 96s43 96 96 96zM374 830c28 0 51 24 51 51c0 28 -23 51 -51 51s-51 -23 -51 -51c0 -27 23 -51 51 -51zM50 668v32h207v-32c-33 0 -55 -12 -55 -36v-345c0 -117 44 -209 171 -209c126 0 171 81 171 209l1 345
c0 25 -22 36 -55 36v32h207v-32c-33 0 -56 -12 -56 -36l-1 -342c-2 -228 -95 -299 -268 -299c-166 0 -267 71 -267 298l1 343c0 24 -23 36 -56 36z" />
    <glyph glyph-name="V" unicode="V" horiz-adv-x="730" 
d="M318 0l-212 632c-8 23 -23 36 -56 36v32h207v-32c-33 0 -63 -13 -55 -36l163 -489l163 489c8 23 -22 36 -55 36v32h207v-32c-33 0 -48 -13 -56 -36l-212 -632h-94z" />
    <glyph glyph-name="W" unicode="W" horiz-adv-x="1117" 
d="M298 0l-212 632c-8 23 -23 36 -56 36v32h207v-32c-30 0 -60 -11 -56 -32l164 -493l163 493c3 21 -26 32 -57 32v32h215v-32c-31 0 -60 -11 -57 -32c26 -80 64 -192 163 -493l164 493c4 21 -26 32 -56 32v32h207v-32c-33 0 -48 -13 -56 -36l-212 -632h-94l-166 495
l-167 -495h-94z" />
    <glyph glyph-name="X" unicode="X" horiz-adv-x="735" 
d="M25 1v32c33 0 42 15 82 70l207 276l-181 241c-25 32 -33 48 -66 48v32h222v-32c-33 0 -73 -11 -48 -46l126 -173l128 174c24 33 -16 45 -49 45v32h222v-32c-33 0 -44 -20 -67 -50l-175 -239l220 -299c14 -19 31 -47 64 -47v-32h-222v32c33 0 76 9 50 44l-171 232
l-163 -221c-38 -49 10 -55 43 -55v-32h-222z" />
    <glyph glyph-name="Y" unicode="Y" horiz-adv-x="693" 
d="M50 669v32h212v-32c-33 0 -68 -17 -55 -36l137 -212l143 212c13 20 -23 36 -56 36v32h212v-32c-33 0 -42 -16 -55 -36l-197 -291v-274c0 -24 23 -36 56 -36v-32h-207v32c33 0 55 12 55 36v274l-189 291c-13 19 -23 36 -56 36z" />
    <glyph glyph-name="Yacute" unicode="&#xdd;" horiz-adv-x="693" 
d="M425 985c49 -26 11 -75 -24 -120l-70 -93l-32 19l38 110c17 55 42 109 88 84zM50 669v32h212v-32c-33 0 -68 -17 -55 -36l137 -212l143 212c13 20 -23 36 -56 36v32h212v-32c-33 0 -42 -16 -55 -36l-197 -291v-274c0 -24 23 -36 56 -36v-32h-207v32c33 0 55 12 55 36v274
l-189 291c-13 19 -23 36 -56 36z" />
    <glyph glyph-name="Z" unicode="Z" horiz-adv-x="620" 
d="M55 0v96l377 531h-285c-23 0 -36 -23 -36 -56h-32v129h460v-78l-386 -548h349c24 0 36 22 36 55h32v-129h-515z" />
    <glyph glyph-name="Zacute" unicode="&#x179;" horiz-adv-x="620" 
d="M388 985c49 -26 11 -75 -24 -120l-70 -93l-32 19l38 110c17 55 42 109 88 84zM55 0v96l377 531h-285c-23 0 -36 -23 -36 -56h-32v129h460v-78l-386 -548h349c24 0 36 22 36 55h32v-129h-515z" />
    <glyph glyph-name="Zdotaccent" unicode="&#x17b;" horiz-adv-x="620" 
d="M311 797c-43 0 -77 34 -77 77c0 42 34 76 77 76c42 0 76 -34 76 -76c0 -43 -34 -77 -76 -77zM55 0v96l377 531h-285c-23 0 -36 -23 -36 -56h-32v129h460v-78l-386 -548h349c24 0 36 22 36 55h32v-129h-515z" />
    <glyph glyph-name="a" unicode="a" horiz-adv-x="614" 
d="M459 -2c-12 0 -16 12 -22 42c-177 -120 -417 2 -417 210c0 219 254 336 437 202c19 -14 66 -57 65 -70l2 -243c0 -63 10 -78 60 -79v-18c-71 0 -102 -44 -125 -44zM424 383c-126 102 -290 27 -290 -133s172 -229 290 -132v265z" />
    <glyph glyph-name="aacute" unicode="&#xe1;" horiz-adv-x="614" 
d="M385 785c49 -26 11 -75 -24 -120l-70 -93l-32 19l38 110c17 55 42 109 88 84zM459 -2c-12 0 -16 12 -22 42c-177 -120 -417 2 -417 210c0 219 254 336 437 202c19 -14 66 -57 65 -70l2 -243c0 -63 10 -78 60 -79v-18c-71 0 -102 -44 -125 -44zM424 383
c-126 102 -290 27 -290 -133s172 -229 290 -132v265z" />
    <glyph glyph-name="adieresis" unicode="&#xe4;" horiz-adv-x="614" 
d="M234 630c-28 0 -49 22 -49 49s21 49 49 49c26 0 48 -22 48 -49s-22 -49 -48 -49zM380 630c-27 0 -48 22 -48 49s21 49 48 49s49 -22 49 -49s-22 -49 -49 -49zM459 -2c-12 0 -16 12 -22 42c-177 -120 -417 2 -417 210c0 219 254 336 437 202c19 -14 66 -57 65 -70l2 -243
c0 -63 10 -78 60 -79v-18c-71 0 -102 -44 -125 -44zM424 383c-126 102 -290 27 -290 -133s172 -229 290 -132v265z" />
    <glyph glyph-name="amacron" unicode="&#x101;" horiz-adv-x="614" 
d="M180 595v61h270v-61h-270zM459 -2c-12 0 -16 12 -22 42c-177 -120 -417 2 -417 210c0 219 254 336 437 202c19 -14 66 -57 65 -70l2 -243c0 -63 10 -78 60 -79v-18c-71 0 -102 -44 -125 -44zM424 383c-126 102 -290 27 -290 -133s172 -229 290 -132v265z" />
    <glyph glyph-name="b" unicode="b" horiz-adv-x="646" 
d="M173 -5c-24 0 -48 47 -123 47v19c37 1 53 12 60 35v575c0 29 -5 40 -42 40v34c57 0 95 5 95 55h43v-325c174 110 405 -10 405 -220c0 -212 -238 -331 -416 -217c-5 -33 -10 -43 -22 -43zM206 121c116 -98 294 -30 294 134c0 166 -175 236 -294 133v-267z" />
    <glyph glyph-name="c" unicode="c" horiz-adv-x="507" 
d="M472 75c-150 -176 -451 -63 -452 175c1 232 280 346 438 189l-42 -53c-130 94 -289 22 -290 -139c0 -166 182 -224 302 -118z" />
    <glyph glyph-name="cacute" unicode="&#x107;" horiz-adv-x="507" 
d="M332 785c49 -26 11 -75 -24 -120l-70 -93l-32 19l38 110c17 55 42 109 88 84zM472 75c-150 -176 -451 -63 -452 175c1 232 280 346 438 189l-42 -53c-130 94 -289 22 -290 -139c0 -166 182 -224 302 -118z" />
    <glyph glyph-name="d" unicode="d" horiz-adv-x="636" 
d="M20 255c0 211 236 336 403 223v193c0 30 -5 40 -42 41v34c57 0 98 5 98 54h43v-682c1 -45 19 -57 64 -59v-19c-75 0 -110 -47 -135 -47c-12 0 -16 15 -21 44c-188 -115 -410 12 -410 218zM132 255c0 -153 141 -226 290 -136v277c-112 104 -290 21 -290 -141z" />
    <glyph glyph-name="e" unicode="e" horiz-adv-x="510" 
d="M427 140l47 -43c-139 -200 -440 -94 -443 154c1 142 88 259 208 261c144 4 243 -54 243 -277l-354 -1c10 -167 199 -215 299 -94zM245 437c-69 -1 -110 -69 -111 -138h258c-2 79 -41 141 -147 138z" />
    <glyph glyph-name="eacute" unicode="&#xe9;" horiz-adv-x="510" 
d="M333 785c49 -26 11 -75 -24 -120l-70 -93l-32 19l38 110c17 55 42 109 88 84zM427 140l47 -43c-139 -200 -440 -94 -443 154c1 142 88 259 208 261c144 4 243 -54 243 -277l-354 -1c10 -167 199 -215 299 -94zM245 437c-69 -1 -110 -69 -111 -138h258
c-2 79 -41 141 -147 138z" />
    <glyph glyph-name="edieresis" unicode="&#xeb;" horiz-adv-x="510" 
d="M182 630c-28 0 -49 22 -49 49s21 49 49 49c26 0 48 -22 48 -49s-22 -49 -48 -49zM328 630c-27 0 -48 22 -48 49s21 49 48 49s49 -22 49 -49s-22 -49 -49 -49zM427 140l47 -43c-139 -200 -440 -94 -443 154c1 142 88 259 208 261c144 4 243 -54 243 -277l-354 -1
c10 -167 199 -215 299 -94zM245 437c-69 -1 -110 -69 -111 -138h258c-2 79 -41 141 -147 138z" />
    <glyph glyph-name="edotaccent" unicode="&#x117;" horiz-adv-x="510" 
d="M256 597c-43 0 -77 34 -77 77c0 42 34 76 77 76c42 0 76 -34 76 -76c0 -43 -34 -77 -76 -77zM427 140l47 -43c-139 -200 -440 -94 -443 154c1 142 88 259 208 261c144 4 243 -54 243 -277l-354 -1c10 -167 199 -215 299 -94zM245 437c-69 -1 -110 -69 -111 -138h258
c-2 79 -41 141 -147 138z" />
    <glyph glyph-name="emacron" unicode="&#x113;" horiz-adv-x="510" 
d="M128 595v61h270v-61h-270zM427 140l47 -43c-139 -200 -440 -94 -443 154c1 142 88 259 208 261c144 4 243 -54 243 -277l-354 -1c10 -167 199 -215 299 -94zM245 437c-69 -1 -110 -69 -111 -138h258c-2 79 -41 141 -147 138z" />
    <glyph glyph-name="f" unicode="f" horiz-adv-x="433" 
d="M360 669c-14 20 -36 46 -72 48c-26 3 -51 -10 -62 -48c-14 -21 -12 -45 -13 -87v-79h83v-69h-83v-366c0 -24 22 -36 55 -36v-32h-207v32c33 0 56 12 56 36v366h-62v69h62v93c0 117 14 187 111 194c51 7 134 11 170 -104z" />
    <glyph glyph-name="g" unicode="g" horiz-adv-x="588" 
d="M103 -126c162 -120 315 -47 315 73v86c-175 -103 -398 8 -398 213c0 207 225 318 398 220v54h43c0 -49 40 -54 97 -54v-34c-37 -1 -41 -11 -41 -41v-445c-2 -204 -262 -309 -467 -141zM131 246c0 -165 170 -229 287 -135l-2 271c-119 99 -285 27 -285 -136z" />
    <glyph glyph-name="h" unicode="h" horiz-adv-x="661" 
d="M50 0v32c33 0 56 12 56 36v603c0 30 -5 40 -42 41v34c57 0 95 5 95 54h43v-330c36 28 84 44 139 44c130 0 235 -78 235 -223v-223c0 -24 22 -36 55 -36v-32h-210v32c33 0 55 12 55 36v183c0 112 -40 183 -135 183c-94 0 -135 -72 -135 -201v-165c0 -24 22 -36 55 -36v-32
h-211z" />
    <glyph glyph-name="i" unicode="i" 
d="M147 513c-36 0 -66 29 -66 65s30 65 66 65c35 0 65 -29 65 -65s-30 -65 -65 -65zM50 0v32c33 0 56 12 56 36v279c0 29 -5 40 -42 40v34c57 0 95 5 95 55h43v-408c0 -24 22 -36 55 -36v-32h-207z" />
    <glyph glyph-name="dotlessi" unicode="&#x131;" 
d="M50 0v32c33 0 56 12 56 36v279c0 29 -5 40 -42 40v34c57 0 95 5 95 55h43v-408c0 -24 22 -36 55 -36v-32h-207z" />
    <glyph glyph-name="iacute" unicode="&#xed;" 
d="M232 785c49 -26 11 -75 -24 -120l-70 -93l-32 19l38 110c17 55 42 109 88 84zM50 0v32c33 0 56 12 56 36v279c0 29 -5 40 -42 40v34c57 0 95 5 95 55h43v-408c0 -24 22 -36 55 -36v-32h-207z" />
    <glyph glyph-name="imacron" unicode="&#x12b;" 
d="M27 595v61h270v-61h-270zM50 0v32c33 0 56 12 56 36v279c0 29 -5 40 -42 40v34c57 0 95 5 95 55h43v-408c0 -24 22 -36 55 -36v-32h-207z" />
    <glyph glyph-name="j" unicode="j" horiz-adv-x="306" 
d="M191 515c-36 0 -66 29 -66 65s30 65 66 65c35 0 65 -29 65 -65s-30 -65 -65 -65zM-16 -164l19 38c54 -59 145 -52 145 21v452c0 29 -4 40 -41 40v34c57 0 94 5 94 55h43v-594c0 -137 -200 -160 -260 -46z" />
    <glyph glyph-name="k" unicode="k" horiz-adv-x="616" 
d="M50 0v32c33 0 56 12 56 36v503c0 30 -5 40 -42 41v34c57 0 95 5 95 54h43v-403l131 124c20 19 -23 36 -56 36v32h227v-32c-33 0 -52 -15 -75 -36l-111 -107l188 -246c19 -25 37 -36 70 -36v-32h-228v32c33 0 71 16 56 36l-144 190l-58 -61v-129c0 -24 22 -36 55 -36v-32
h-207z" />
    <glyph glyph-name="l" unicode="l" 
d="M50 0v32c33 0 56 12 56 36v504c0 29 -5 40 -42 40v34c57 0 95 5 95 55h43v-633c0 -24 22 -36 55 -36v-32h-207z" />
    <glyph glyph-name="lacute" unicode="&#x13a;" 
d="M222 945c49 -26 11 -75 -24 -120l-70 -93l-32 19l38 110c17 55 42 109 88 84zM50 0v32c33 0 56 12 56 36v504c0 29 -5 40 -42 40v34c57 0 95 5 95 55h43v-633c0 -24 22 -36 55 -36v-32h-207z" />
    <glyph glyph-name="m" unicode="m" horiz-adv-x="1037" 
d="M50 0v32c33 0 56 12 56 36v327c0 29 -5 40 -42 40v34c57 0 95 5 95 55h43v-69c29 35 84 59 139 59c78 0 152 -34 194 -88c57 71 112 88 181 88c130 0 233 -76 234 -219l2 -227c0 -24 22 -36 55 -36v-32h-210v32c33 0 55 12 55 36l-1 208c-1 72 -26 148 -135 148
c-84 0 -139 -54 -139 -160v-196c0 -24 22 -36 55 -36v-32h-209v32c33 0 56 12 56 36v208c0 92 -48 148 -138 148c-97 0 -136 -59 -136 -159v-197c0 -24 23 -36 56 -36v-32h-211z" />
    <glyph glyph-name="n" unicode="n" horiz-adv-x="661" 
d="M50 0v32c33 0 56 12 56 36v327c0 29 -5 40 -42 40v34c57 0 95 5 95 55h43v-69c29 35 84 59 139 59c130 0 235 -78 235 -223v-223c0 -24 22 -36 55 -36v-32h-210v32c33 0 55 12 55 36v208c0 82 -30 143 -135 143c-80 0 -136 -45 -136 -149v-202c0 -24 23 -36 56 -36v-32
h-211z" />
    <glyph glyph-name="nacute" unicode="&#x144;" horiz-adv-x="661" 
d="M409 785c49 -26 11 -75 -24 -120l-70 -93l-32 19l38 110c17 55 42 109 88 84zM50 0v32c33 0 56 12 56 36v327c0 29 -5 40 -42 40v34c57 0 95 5 95 55h43v-69c29 35 84 59 139 59c130 0 235 -78 235 -223v-223c0 -24 22 -36 55 -36v-32h-210v32c33 0 55 12 55 36v208
c0 82 -30 143 -135 143c-80 0 -136 -45 -136 -149v-202c0 -24 23 -36 56 -36v-32h-211z" />
    <glyph glyph-name="ntilde" unicode="&#xf1;" horiz-adv-x="661" 
d="M414 645c-49 0 -115 45 -160 45c-46 0 -37 -46 -66 -46c-50 0 -13 101 66 101c55 0 113 -46 161 -46c47 0 23 56 55 56c54 0 28 -110 -56 -110zM50 0v32c33 0 56 12 56 36v327c0 29 -5 40 -42 40v34c57 0 95 5 95 55h43v-69c29 35 84 59 139 59c130 0 235 -78 235 -223
v-223c0 -24 22 -36 55 -36v-32h-210v32c33 0 55 12 55 36v208c0 82 -30 143 -135 143c-80 0 -136 -45 -136 -149v-202c0 -24 23 -36 56 -36v-32h-211z" />
    <glyph glyph-name="o" unicode="o" horiz-adv-x="602" 
d="M49 183c-37 138 45 282 186 319c138 38 281 -44 318 -182c38 -140 -43 -284 -182 -322c-139 -36 -284 45 -322 185zM152 211c18 -72 80 -117 148 -120c85 -5 158 59 156 154c-1 102 -89 194 -187 181c-94 -14 -143 -118 -117 -215z" />
    <glyph glyph-name="oacute" unicode="&#xf3;" horiz-adv-x="602" 
d="M379 785c49 -26 11 -75 -24 -120l-70 -93l-32 19l38 110c17 55 42 109 88 84zM49 183c-37 138 45 282 186 319c138 38 281 -44 318 -182c38 -140 -43 -284 -182 -322c-139 -36 -284 45 -322 185zM152 211c18 -72 80 -117 148 -120c85 -5 158 59 156 154
c-1 102 -89 194 -187 181c-94 -14 -143 -118 -117 -215z" />
    <glyph glyph-name="odieresis" unicode="&#xf6;" horiz-adv-x="602" 
d="M228 630c-28 0 -49 22 -49 49s21 49 49 49c26 0 48 -22 48 -49s-22 -49 -48 -49zM374 630c-27 0 -48 22 -48 49s21 49 48 49s49 -22 49 -49s-22 -49 -49 -49zM49 183c-37 138 45 282 186 319c138 38 281 -44 318 -182c38 -140 -43 -284 -182 -322
c-139 -36 -284 45 -322 185zM152 211c18 -72 80 -117 148 -120c85 -5 158 59 156 154c-1 102 -89 194 -187 181c-94 -14 -143 -118 -117 -215z" />
    <glyph glyph-name="omacron" unicode="&#x14d;" horiz-adv-x="602" 
d="M174 595v61h270v-61h-270zM49 183c-37 138 45 282 186 319c138 38 281 -44 318 -182c38 -140 -43 -284 -182 -322c-139 -36 -284 45 -322 185zM152 211c18 -72 80 -117 148 -120c85 -5 158 59 156 154c-1 102 -89 194 -187 181c-94 -14 -143 -118 -117 -215z" />
    <glyph glyph-name="p" unicode="p" horiz-adv-x="640" 
d="M50 -275v32c33 0 56 12 56 36l-1 602c0 29 -4 40 -41 40v34c57 0 94 5 94 55h43v-63c170 106 399 20 399 -217c0 -223 -226 -315 -398 -217v-234c0 -24 22 -36 55 -36v-32h-207zM202 105c120 -96 287 -40 287 139c0 193 -168 242 -287 140v-279z" />
    <glyph glyph-name="q" unicode="q" horiz-adv-x="607" 
d="M447 -253c-35 0 -30 81 -30 280c-171 -105 -397 -7 -397 217c0 243 231 332 398 218v62h43c0 -50 37 -55 94 -55v-34c-37 0 -41 -11 -41 -40l-1 -520c0 -46 20 -61 64 -63v-19c-75 0 -106 -46 -130 -46zM417 105v280c-119 96 -286 58 -286 -141c0 -182 166 -230 286 -139
z" />
    <glyph glyph-name="r" unicode="r" horiz-adv-x="460" 
d="M395 418c-17 18 -46 30 -80 27c-69 -7 -118 -53 -118 -165v-212c0 -24 22 -36 55 -36v-32h-202v32c33 0 56 12 56 36v327c0 29 -5 40 -42 40v34c57 0 95 5 95 55h43v-64c32 53 107 67 168 43c17 -7 31 -17 43 -33z" />
    <glyph glyph-name="racute" unicode="&#x155;" horiz-adv-x="460" 
d="M309 785c49 -26 11 -75 -24 -120l-70 -93l-32 19l38 110c17 55 42 109 88 84zM395 418c-17 18 -46 30 -80 27c-69 -7 -118 -53 -118 -165v-212c0 -24 22 -36 55 -36v-32h-202v32c33 0 56 12 56 36v327c0 29 -5 40 -42 40v34c57 0 95 5 95 55h43v-64c32 53 107 67 168 43
c17 -7 31 -17 43 -33z" />
    <glyph glyph-name="s" unicode="s" horiz-adv-x="433" 
d="M44 55v119l37 1c10 -45 10 -62 27 -80c30 -26 67 -37 110 -34c49 4 82 36 82 76c0 48 -33 57 -107 95c-70 35 -128 73 -129 147c-2 90 78 146 175 146c49 0 86 -9 127 -38v-106h-32c0 47 -22 79 -94 78c-47 0 -91 -18 -90 -55c0 -37 38 -68 114 -103
c75 -38 127 -77 127 -156c1 -112 -70 -155 -169 -155c-58 0 -127 15 -178 65z" />
    <glyph glyph-name="sacute" unicode="&#x15b;" horiz-adv-x="433" 
d="M295 785c49 -26 11 -75 -24 -120l-70 -93l-32 19l38 110c17 55 42 109 88 84zM44 55v119l37 1c10 -45 10 -62 27 -80c30 -26 67 -37 110 -34c49 4 82 36 82 76c0 48 -33 57 -107 95c-70 35 -128 73 -129 147c-2 90 78 146 175 146c49 0 86 -9 127 -38v-106h-32
c0 47 -22 79 -94 78c-47 0 -91 -18 -90 -55c0 -37 38 -68 114 -103c75 -38 127 -77 127 -156c1 -112 -70 -155 -169 -155c-58 0 -127 15 -178 65z" />
    <glyph glyph-name="t" unicode="t" horiz-adv-x="380" 
d="M227 0c-93 0 -116 49 -116 151l1 289h-72v70h71c0 115 -7 129 57 175c62 46 45 11 44 -175h101v-70h-100v-274c0 -65 12 -87 38 -85c44 3 76 27 75 -8c-1 -51 -46 -73 -99 -73z" />
    <glyph glyph-name="u" unicode="u" horiz-adv-x="661" 
d="M50 468v32h211v-32c-33 0 -56 -12 -56 -36v-203c0 -111 49 -149 125 -149c67 0 136 30 136 135v217c0 24 -22 36 -55 36v32h210v-32c-33 0 -55 -12 -55 -36v-303c0 -46 19 -61 64 -63v-19c-75 0 -106 -46 -131 -46c-12 0 -17 6 -26 46c-32 -40 -85 -61 -143 -61
c-115 0 -224 38 -224 224v222c0 24 -23 36 -56 36z" />
    <glyph glyph-name="uacute" unicode="&#xfa;" horiz-adv-x="661" 
d="M409 785c49 -26 11 -75 -24 -120l-70 -93l-32 19l38 110c17 55 42 109 88 84zM50 468v32h211v-32c-33 0 -56 -12 -56 -36v-203c0 -111 49 -149 125 -149c67 0 136 30 136 135v217c0 24 -22 36 -55 36v32h210v-32c-33 0 -55 -12 -55 -36v-303c0 -46 19 -61 64 -63v-19
c-75 0 -106 -46 -131 -46c-12 0 -17 6 -26 46c-32 -40 -85 -61 -143 -61c-115 0 -224 38 -224 224v222c0 24 -23 36 -56 36z" />
    <glyph glyph-name="udieresis" unicode="&#xfc;" horiz-adv-x="661" 
d="M258 630c-28 0 -49 22 -49 49s21 49 49 49c26 0 48 -22 48 -49s-22 -49 -48 -49zM404 630c-27 0 -48 22 -48 49s21 49 48 49s49 -22 49 -49s-22 -49 -49 -49zM50 468v32h211v-32c-33 0 -56 -12 -56 -36v-203c0 -111 49 -149 125 -149c67 0 136 30 136 135v217
c0 24 -22 36 -55 36v32h210v-32c-33 0 -55 -12 -55 -36v-303c0 -46 19 -61 64 -63v-19c-75 0 -106 -46 -131 -46c-12 0 -17 6 -26 46c-32 -40 -85 -61 -143 -61c-115 0 -224 38 -224 224v222c0 24 -23 36 -56 36z" />
    <glyph glyph-name="umacron" unicode="&#x16b;" horiz-adv-x="661" 
d="M204 595v61h270v-61h-270zM50 468v32h211v-32c-33 0 -56 -12 -56 -36v-203c0 -111 49 -149 125 -149c67 0 136 30 136 135v217c0 24 -22 36 -55 36v32h210v-32c-33 0 -55 -12 -55 -36v-303c0 -46 19 -61 64 -63v-19c-75 0 -106 -46 -131 -46c-12 0 -17 6 -26 46
c-32 -40 -85 -61 -143 -61c-115 0 -224 38 -224 224v222c0 24 -23 36 -56 36z" />
    <glyph glyph-name="uring" unicode="&#x16f;" horiz-adv-x="661" 
d="M331 777c53 0 96 -43 96 -96s-43 -96 -96 -96s-96 43 -96 96s43 96 96 96zM331 630c28 0 51 24 51 51c0 28 -23 51 -51 51s-51 -23 -51 -51c0 -27 23 -51 51 -51zM50 468v32h211v-32c-33 0 -56 -12 -56 -36v-203c0 -111 49 -149 125 -149c67 0 136 30 136 135v217
c0 24 -22 36 -55 36v32h210v-32c-33 0 -55 -12 -55 -36v-303c0 -46 19 -61 64 -63v-19c-75 0 -106 -46 -131 -46c-12 0 -17 6 -26 46c-32 -40 -85 -61 -143 -61c-115 0 -224 38 -224 224v222c0 24 -23 36 -56 36z" />
    <glyph glyph-name="v" unicode="v" horiz-adv-x="637" 
d="M50 468v32h210v-32c-33 0 -65 -12 -56 -36l113 -281l116 281c10 24 -23 36 -56 36v32h210v-32c-33 0 -45 -12 -55 -36l-182 -432h-72l-172 432c-10 24 -23 36 -56 36z" />
    <glyph glyph-name="w" unicode="w" horiz-adv-x="796" 
d="M429 342l87 -191l89 281c7 24 -23 36 -56 36v32h207v-32c-33 0 -47 -12 -55 -36l-155 -432h-61l-88 204l-94 -204h-65l-147 432c-8 24 -23 36 -56 36v32h207v-32c-33 0 -62 -12 -55 -36l86 -286l89 196h67z" />
    <glyph glyph-name="x" unicode="x" horiz-adv-x="603" 
d="M50 1v32c33 0 42 19 56 36l143 187l-136 176c-14 18 -22 36 -55 36v32h212v-32c-33 0 -70 -18 -56 -36l90 -110l90 110c14 17 -23 36 -56 36v32h212v-32c-33 0 -42 -18 -55 -36l-135 -176l142 -187c14 -17 23 -36 56 -36v-32h-212v32c33 0 70 19 55 36l-98 120l-96 -120
c-14 -17 22 -36 55 -36v-32h-212z" />
    <glyph glyph-name="y" unicode="y" horiz-adv-x="585" 
d="M25 468v32h207v-32c-33 0 -65 -13 -55 -36l105 -258l101 257c9 22 -22 36 -55 36v32h207v-32c-33 0 -47 -14 -56 -36c-245 -667 -230 -704 -322 -662c-111 50 -116 182 -30 102c54 -54 62 17 110 184l-156 377c-10 23 -23 36 -56 36z" />
    <glyph glyph-name="yacute" unicode="&#xfd;" horiz-adv-x="585" 
d="M371 785c49 -26 11 -75 -24 -120l-70 -93l-32 19l38 110c17 55 42 109 88 84zM25 468v32h207v-32c-33 0 -65 -13 -55 -36l105 -258l101 257c9 22 -22 36 -55 36v32h207v-32c-33 0 -47 -14 -56 -36c-245 -667 -230 -704 -322 -662c-111 50 -116 182 -30 102
c54 -54 62 17 110 184l-156 377c-10 23 -23 36 -56 36z" />
    <glyph glyph-name="z" unicode="z" horiz-adv-x="475" 
d="M53 -1v87l228 326h-158c-24 0 -36 -23 -36 -56h-32v145l339 -1v-88l-228 -326h191c24 0 36 23 36 56h32v-142z" />
    <glyph glyph-name="zacute" unicode="&#x17a;" horiz-adv-x="475" 
d="M316 785c49 -26 11 -75 -24 -120l-70 -93l-32 19l38 110c17 55 42 109 88 84zM53 -1v87l228 326h-158c-24 0 -36 -23 -36 -56h-32v145l339 -1v-88l-228 -326h191c24 0 36 23 36 56h32v-142z" />
    <glyph glyph-name="zdotaccent" unicode="&#x17c;" horiz-adv-x="475" 
d="M239 597c-43 0 -77 34 -77 77c0 42 34 76 77 76c42 0 76 -34 76 -76c0 -43 -34 -77 -76 -77zM53 -1v87l228 326h-158c-24 0 -36 -23 -36 -56h-32v145l339 -1v-88l-228 -326h191c24 0 36 23 36 56h32v-142z" />
    <glyph glyph-name="zero" unicode="0" horiz-adv-x="646" 
d="M249 699c155 54 306 -67 346 -252c41 -187 -43 -389 -196 -442c-158 -56 -309 67 -350 255c-38 186 46 386 200 439zM268 631c-97 -34 -135 -207 -109 -338c27 -133 127 -243 219 -210c96 35 137 198 109 330c-27 131 -129 249 -219 218z" />
    <glyph glyph-name="one" unicode="1" horiz-adv-x="296" 
d="M200 706v-638c0 -24 22 -36 55 -36v-32h-207v32c33 0 56 12 56 36v478c0 55 -25 61 -62 61v39c57 0 110 10 110 60h48z" />
    <glyph glyph-name="two" unicode="2" horiz-adv-x="539" 
d="M469 152v-152c-155 -1 -335 0 -395 0v86l167 208c52 63 134 143 117 224c-33 158 -211 105 -252 -45l-61 29c15 85 58 141 109 168c136 72 253 18 294 -116c41 -135 -122 -329 -256 -468h204c24 0 36 33 36 66h37z" />
    <glyph glyph-name="three" unicode="3" horiz-adv-x="521" 
d="M118 526l-58 23c56 221 356 223 356 0c0 -44 -34 -106 -77 -148c54 -18 92 -52 113 -112c68 -204 -185 -373 -365 -250l31 64c121 -81 294 21 242 163c-19 53 -39 67 -91 93c-35 -17 -61 -26 -105 -26v40c63 15 94 35 118 70c92 166 -88 248 -164 83z" />
    <glyph glyph-name="four" unicode="4" horiz-adv-x="516" 
d="M245 0v32c33 0 56 12 56 36v194h-256v58l249 380h102l1 -361h59v-77h-59v-194c0 -24 22 -36 55 -36v-32h-207zM156 339h144v232z" />
    <glyph glyph-name="five" unicode="5" horiz-adv-x="643" 
d="M89 68l32 55c148 -116 316 -48 297 134c-10 108 -126 205 -272 157l119 287h252l-15 -62l-168 1l-61 -144c118 10 225 -86 241 -228c22 -230 -238 -369 -425 -200z" />
    <glyph glyph-name="six" unicode="6" horiz-adv-x="548" 
d="M400 647c-31 10 -66 7 -102 -12c-84 -39 -116 -103 -145 -217c37 29 80 37 122 35c106 -5 198 -85 209 -200c15 -127 -60 -247 -176 -265c-144 -25 -246 131 -248 312c-1 204 79 408 261 413c47 1 83 -8 101 -24zM404 232c-5 79 -71 145 -158 136
c-86 -6 -104 -76 -90 -141c16 -85 62 -148 136 -141c73 7 117 72 112 146z" />
    <glyph glyph-name="seven" unicode="7" horiz-adv-x="578" 
d="M60 558v142h447v-81l-86 -194h84v-76h-118l-163 -349h-99l162 349h-119v76h150l86 195l-276 -1c-24 0 -36 -28 -36 -61h-32z" />
    <glyph glyph-name="eight" unicode="8" horiz-adv-x="594" 
d="M336 362c102 -40 175 -83 175 -171c0 -99 -94 -191 -230 -191s-230 71 -230 171c0 97 111 159 160 184c-107 50 -139 112 -139 180c0 70 72 163 209 163c130 0 203 -63 203 -156c0 -81 -62 -153 -148 -180zM162 527c0 -60 49 -96 126 -123c62 19 114 70 114 131
c0 72 -64 102 -121 102c-64 0 -119 -45 -119 -110zM281 65c113 0 138 75 138 112c0 45 -26 97 -150 128c-51 -18 -118 -58 -118 -128c0 -68 54 -112 130 -112z" />
    <glyph glyph-name="nine" unicode="9" horiz-adv-x="543" 
d="M100 59c46 -20 87 -19 141 1c69 27 138 117 154 212c-143 -71 -291 7 -323 143c-29 125 32 258 145 293c163 51 276 -117 273 -313c-4 -204 -114 -411 -296 -411c-37 0 -72 5 -97 17zM150 448c15 -60 56 -113 128 -119c47 -6 88 16 107 43c27 39 25 111 12 148
c-21 63 -71 129 -155 109c-74 -22 -111 -102 -92 -181z" />
    <glyph glyph-name="fraction" unicode="&#x2044;" horiz-adv-x="555" 
d="M106 -8l-66 43l409 681l66 -43z" />
    <glyph glyph-name="period" unicode="." horiz-adv-x="210" 
d="M120 101c27 0 50 -23 50 -51c0 -27 -23 -49 -50 -49c-28 0 -50 22 -50 49c0 28 22 51 50 51z" />
    <glyph glyph-name="comma" unicode="," horiz-adv-x="223" 
d="M61 -104l-21 18c41 42 64 79 64 113c0 30 -29 50 -35 73c-5 35 24 51 55 51c39 -1 59 -36 59 -80c0 -31 -11 -61 -29 -89s-57 -60 -93 -86z" />
    <glyph glyph-name="colon" unicode=":" horiz-adv-x="200" 
d="M110 340c-27 0 -50 23 -50 51c0 27 23 49 50 49c28 0 50 -22 50 -49c0 -28 -22 -51 -50 -51zM110 47c-27 0 -50 23 -50 51c0 27 23 49 50 49c28 0 50 -22 50 -49c0 -28 -22 -51 -50 -51z" />
    <glyph glyph-name="semicolon" unicode=";" horiz-adv-x="243" 
d="M142 344c-27 0 -50 23 -50 51c0 27 23 49 50 49c28 0 50 -22 50 -49c0 -28 -22 -51 -50 -51zM81 -102l-21 18c41 42 64 79 64 113c0 30 -29 50 -35 73c-5 35 24 51 55 51c39 -1 59 -36 59 -80c0 -31 -11 -61 -29 -89s-57 -60 -93 -86z" />
    <glyph glyph-name="ellipsis" unicode="&#x2026;" horiz-adv-x="600" 
d="M120 101c27 0 50 -23 50 -51c0 -27 -23 -49 -50 -49c-28 0 -50 22 -50 49c0 28 22 51 50 51z" />
    <glyph glyph-name="exclam" unicode="!" horiz-adv-x="194" 
d="M71 148l-31 488c0 42 31 65 56 65c26 0 58 -23 58 -68c3 41 -21 -307 -34 -485h-49zM99 2c-27 0 -48 22 -48 50c0 27 21 49 48 49c28 0 49 -22 49 -49c0 -28 -21 -50 -49 -50z" />
    <glyph glyph-name="exclamdown" unicode="&#xa1;" horiz-adv-x="174" 
d="M89 701c28 0 49 -22 49 -51c0 -27 -21 -48 -49 -48c-27 0 -48 21 -48 48c0 29 21 51 48 51zM61 554h49c13 -178 37 -526 34 -485c0 -45 -32 -67 -58 -67c-25 0 -56 22 -56 64z" />
    <glyph glyph-name="question" unicode="?" horiz-adv-x="472" 
d="M432 546c0 -114 -119 -205 -171 -297c-11 -23 -4 -57 -6 -99h-62c1 36 -2 97 2 108c8 30 91 155 115 202c58 112 14 187 -86 187c-59 0 -105 -38 -105 -77c0 -41 36 -93 -21 -93c-43 0 -58 40 -58 83c0 92 86 151 190 151c115 0 202 -64 202 -165zM223 107
c30 0 52 -23 52 -54c0 -29 -22 -52 -52 -52s-52 23 -52 52c0 31 22 54 52 54z" />
    <glyph glyph-name="questiondown" unicode="&#xbf;" horiz-adv-x="462" 
d="M249 380c-30 0 -52 24 -52 54s22 53 52 53s52 -23 52 -53s-22 -54 -52 -54zM279 337c-1 -36 2 -97 -2 -108c-8 -30 -91 -154 -115 -201c-58 -113 -14 -188 86 -188c59 0 105 38 105 77c0 41 -36 93 21 93c43 0 58 -40 58 -83c0 -92 -86 -151 -190 -151
c-115 0 -202 64 -202 165c0 114 119 205 171 297c11 23 4 57 6 99h62z" />
    <glyph glyph-name="periodcentered" unicode="&#xb7;" horiz-adv-x="240" 
d="M120 296c27 0 50 -23 50 -51c0 -27 -23 -49 -50 -49c-28 0 -50 22 -50 49c0 28 22 51 50 51z" />
    <glyph glyph-name="bullet" unicode="&#x2022;" horiz-adv-x="373" 
d="M188 389c62 0 115 -53 115 -119c0 -63 -53 -114 -115 -114c-67 0 -118 51 -118 114c0 66 51 119 118 119z" />
    <glyph glyph-name="asterisk" unicode="*" horiz-adv-x="377" 
d="M182 611c-19 91 -24 116 -23 121c1 16 17 23 36 23c22 -1 30 -10 31 -28c0 -4 -2 -14 -30 -116h-14zM170 597c-103 25 -112 28 -115 30c-16 9 -20 21 -10 41c9 16 23 27 38 20c3 -1 24 -18 94 -79zM207 597l-7 12c70 61 91 78 94 79c15 7 29 -4 38 -20
c10 -20 6 -32 -10 -41c-3 -2 -12 -5 -115 -30zM83 499c-15 -7 -29 4 -38 20c-10 20 -6 32 10 41c3 2 12 5 115 30l7 -12c-70 -61 -91 -78 -94 -79zM294 499c-3 1 -24 18 -94 79l7 12c103 -25 112 -28 115 -30c16 -9 20 -21 10 -41c-9 -16 -23 -27 -38 -20zM195 431
c-19 0 -35 7 -36 23c-1 5 4 30 23 121h14c28 -102 30 -112 30 -116c-1 -18 -9 -27 -31 -28z" />
    <glyph glyph-name="numbersign" unicode="#" horiz-adv-x="725" 
d="M675 388h-171l-13 -95h170l-5 -74h-172l-32 -219h-86l33 219h-103l-35 -219h-83l33 219h-174l8 74h172l13 95h-172l11 82h172l31 233h87l-34 -233h104l34 233h86l-34 -233h173zM316 388l-14 -95h103l13 95h-102z" />
    <glyph glyph-name="slash" unicode="/" horiz-adv-x="582" 
d="M108 -56l-68 45l434 722l68 -45z" />
    <glyph glyph-name="backslash" unicode="\" horiz-adv-x="582" 
d="M474 -56l-434 722l68 45l434 -722z" />
    <glyph glyph-name="parenleft" unicode="(" horiz-adv-x="309" 
d="M201 -129c-79 119 -161 238 -161 415c1 187 81 293 161 415h68c-78 -121 -135 -244 -135 -415c0 -167 60 -294 134 -415h-67z" />
    <glyph glyph-name="parenright" unicode=")" horiz-adv-x="309" 
d="M108 -129h-67c74 121 134 248 134 415c0 171 -57 294 -134 415h67c80 -122 160 -228 161 -415c0 -177 -82 -296 -161 -415z" />
    <glyph glyph-name="braceleft" unicode="{" horiz-adv-x="326" 
d="M286 -124c-105 16 -176 89 -176 183c0 46 14 88 14 123c1 44 -27 74 -84 85v45c56 9 83 40 84 79c1 38 -14 78 -14 129c0 94 74 168 176 182v-54c-71 -21 -86 -45 -82 -110c5 -57 26 -128 9 -173c-11 -33 -37 -57 -69 -75c66 -34 77 -63 77 -146c0 -48 -20 -82 -20 -132
c1 -44 29 -65 85 -82v-54z" />
    <glyph glyph-name="braceright" unicode="}" horiz-adv-x="326" 
d="M40 -124v54c56 17 85 38 86 82c0 50 -21 84 -21 132c0 83 11 112 78 146c-33 18 -58 42 -70 75c-17 45 5 116 9 173c4 65 -11 89 -81 110v54c102 -14 176 -88 176 -182c0 -51 -15 -91 -15 -129c1 -39 29 -70 84 -79v-45c-56 -11 -84 -41 -84 -85c1 -35 14 -77 14 -123
c0 -94 -71 -167 -176 -183z" />
    <glyph glyph-name="bracketleft" unicode="[" horiz-adv-x="225" 
d="M40 -130v829h145v-32c-33 0 -56 -12 -56 -36v-693c0 -24 23 -36 56 -36v-32h-145z" />
    <glyph glyph-name="bracketright" unicode="]" horiz-adv-x="225" 
d="M185 -130h-145v32c33 0 56 12 56 36v693c0 24 -23 36 -56 36v32h145v-829z" />
    <glyph glyph-name="hyphen" unicode="-" horiz-adv-x="519" 
d="M80 227v80h379v-80h-379z" />
    <glyph glyph-name="endash" unicode="&#x2013;" horiz-adv-x="621" 
d="M30 224v82h561v-82h-561z" />
    <glyph glyph-name="emdash" unicode="&#x2014;" horiz-adv-x="681" 
d="M50 227v77h581v-77h-581z" />
    <glyph glyph-name="underscore" unicode="_" horiz-adv-x="636" 
d="M60 -39v62h516v-62h-516z" />
    <glyph glyph-name="quotesinglbase" unicode="&#x201a;" horiz-adv-x="600" 
d="M61 -104l-21 18c41 42 64 79 64 113c0 30 -29 50 -35 73c-5 35 24 51 55 51c39 -1 59 -36 59 -80c0 -31 -11 -61 -29 -89s-57 -60 -93 -86z" />
    <glyph glyph-name="quotedblbase" unicode="&#x201e;" horiz-adv-x="600" 
d="M124 151c39 -1 59 -36 59 -80c0 -31 -11 -61 -29 -89s-57 -60 -93 -86l-21 18c41 42 64 79 64 113c0 30 -29 50 -35 73c-5 35 24 51 55 51z" />
    <glyph glyph-name="quotedblleft" unicode="&#x201c;" horiz-adv-x="600" 
d="M154 758c50 -23 17 -75 -15 -122l-70 -113l-29 14l33 130c13 57 32 112 81 91z" />
    <glyph glyph-name="quotedblright" unicode="&#x201d;" horiz-adv-x="600" 
d="M154 758c50 -23 17 -75 -15 -122l-70 -113l-29 14l33 130c13 57 32 112 81 91z" />
    <glyph glyph-name="quoteleft" unicode="&#x2018;" horiz-adv-x="220" 
d="M154 758c50 -23 17 -75 -15 -122l-70 -113l-29 14l33 130c13 57 32 112 81 91z" />
    <glyph glyph-name="quoteright" unicode="&#x2019;" horiz-adv-x="220" 
d="M154 758c50 -23 17 -75 -15 -122l-70 -113l-29 14l33 130c13 57 32 112 81 91z" />
    <glyph glyph-name="quotedbl" unicode="&#x22;" horiz-adv-x="318" 
d="M84 759c56 0 47 -63 37 -117l-20 -133h-32l-22 133c-10 55 -16 117 37 117zM234 759c56 0 47 -60 36 -117l-20 -133h-32l-22 133c-10 58 -15 117 38 117z" />
    <glyph glyph-name="quotesingle" unicode="'" horiz-adv-x="169" 
d="M84 764c56 1 47 -61 37 -117l-18 -134h-32l-24 134c-11 57 -15 116 37 117z" />
    <glyph glyph-name="space" unicode=" " horiz-adv-x="380" 
 />
    <glyph glyph-name="dollar" unicode="$" horiz-adv-x="552" 
d="M241 -100v91c-66 3 -140 23 -197 78v139l45 1c12 -54 11 -75 33 -96c32 -30 66 -43 119 -43v259l-21 13c-81 41 -144 91 -145 181c-1 96 71 159 166 174v91h65v-88c49 -3 92 -14 136 -40v-128h-38c0 53 -33 92 -98 97v-201l12 -8c93 -49 174 -90 175 -236
c0 -115 -87 -175 -187 -190v-94h-65zM241 463v159c-34 -11 -62 -33 -62 -67c0 -48 15 -69 62 -92zM306 80c42 10 88 35 88 90c0 48 -11 86 -88 123v-213z" />
    <glyph glyph-name="plus" unicode="+" horiz-adv-x="564" 
d="M80 219v65h150v157h80v-157h149v-65h-149v-157h-80v157h-150z" />
    <glyph glyph-name="minus" unicode="&#x2212;" horiz-adv-x="582" 
d="M80 227v80h409v-80h-409z" />
    <glyph glyph-name="multiply" unicode="&#xd7;" horiz-adv-x="471" 
d="M108 56l-68 68l129 128l-128 127l67 67l128 -127l127 127l67 -67l-127 -127l128 -129l-67 -67l-128 129z" />
    <glyph glyph-name="divide" unicode="&#xf7;" horiz-adv-x="543" 
d="M257 486c35 0 64 -29 64 -64s-29 -64 -64 -64s-63 29 -63 64c0 36 29 64 63 64zM69 221v80h379v-80h-379zM257 156c35 0 64 -29 64 -64s-29 -64 -64 -64s-63 29 -63 64c0 36 29 64 63 64z" />
    <glyph glyph-name="equal" unicode="=" horiz-adv-x="543" 
d="M66 260v80h404v-80h-404zM66 145v80h404v-80h-404z" />
    <glyph glyph-name="notequal" unicode="&#x2260;" horiz-adv-x="569" 
d="M509 325h-133l-67 -110h200v-80h-248l-104 -171l-68 45l76 126h-105v80h154l67 110h-221v80h269l104 171l68 -45l-76 -126h84v-80z" />
    <glyph glyph-name="greater" unicode="&#x3e;" horiz-adv-x="562" 
d="M522 323v-58l-482 -277v84l387 221l-387 221v83z" />
    <glyph glyph-name="less" unicode="&#x3c;" horiz-adv-x="562" 
d="M40 323l482 274v-83l-386 -221l386 -221v-84l-482 277v58z" />
    <glyph glyph-name="greaterequal" unicode="&#x2265;" horiz-adv-x="600" 
d="M522 348v-58l-482 -186v83l367 131l-367 111v83zM25 -26v62h511v-62h-511z" />
    <glyph glyph-name="lessequal" unicode="&#x2264;" horiz-adv-x="600" 
d="M39 348l482 164v-83l-351 -111l351 -131v-83l-482 186v58zM536 -26h-511v62h511v-62z" />
    <glyph glyph-name="plusminus" unicode="&#xb1;" horiz-adv-x="600" 
d="M110 289v65h150v157h80v-157h149v-65h-149v-157h-80v157h-150zM95 -3v80h409v-80h-409z" />
    <glyph glyph-name="asciitilde" unicode="~" horiz-adv-x="485" 
d="M337 666c-56 0 -133 52 -185 52s-42 -53 -75 -53c-58 0 -16 116 75 116c64 0 131 -52 188 -52c53 0 25 64 63 64c62 0 32 -127 -66 -127z" />
    <glyph glyph-name="asciicircum" unicode="^" horiz-adv-x="532" 
d="M407 307l-143 249l-142 -249h-82l202 354h47l200 -354h-82z" />
    <glyph glyph-name="percent" unicode="%" horiz-adv-x="781" 
d="M139 764c78 22 157 -25 179 -103c22 -79 -26 -160 -102 -182c-79 -21 -159 25 -181 104c-21 79 27 160 104 181zM185 -8l-68 45l434 722l68 -45zM202 538c37 10 58 56 45 103c-12 47 -57 81 -96 71c-38 -10 -57 -64 -45 -109c13 -47 57 -75 96 -65zM567 285
c77 22 156 -26 178 -103c22 -79 -26 -161 -102 -183c-79 -21 -158 25 -180 105c-22 78 27 159 104 181zM630 59c37 10 57 55 45 102c-13 47 -58 82 -96 71c-39 -10 -58 -63 -45 -108c12 -48 56 -76 96 -65z" />
    <glyph glyph-name="perthousand" unicode="&#x2030;" horiz-adv-x="1136" 
d="M139 764c78 22 157 -25 179 -103c22 -79 -26 -160 -102 -182c-79 -21 -159 25 -181 104c-21 79 27 160 104 181zM185 -8l-68 45l434 722l68 -45zM202 538c37 10 58 56 45 103c-12 47 -57 81 -96 71c-38 -10 -57 -64 -45 -109c13 -47 57 -75 96 -65zM567 285
c77 22 156 -26 178 -103c22 -79 -26 -161 -102 -183c-79 -21 -158 25 -180 105c-22 78 27 159 104 181zM922 285c77 22 156 -26 178 -103c22 -79 -26 -161 -102 -183c-79 -21 -158 25 -180 105c-22 78 27 159 104 181zM630 59c37 10 57 55 45 102c-13 47 -58 82 -96 71
c-39 -10 -58 -63 -45 -108c12 -48 56 -76 96 -65zM985 59c37 10 57 55 45 102c-13 47 -58 82 -96 71c-39 -10 -58 -63 -45 -108c12 -48 56 -76 96 -65z" />
    <glyph glyph-name="lozenge" unicode="&#x25ca;" horiz-adv-x="544" 
d="M294 694l199 -350l1 -1h-1l-199 -351h-42l-201 351l-1 1l202 350h42zM272 86l141 258l-141 256l-140 -256z" />
    <glyph glyph-name="at" unicode="@" horiz-adv-x="929" 
d="M463 715c230 0 416 -177 416 -413c0 -100 -25 -225 -122 -270c-56 -24 -83 -15 -109 -7c-18 11 -21 36 -27 66c-184 -128 -430 -1 -430 219c0 225 256 343 451 218c20 -14 67 -59 67 -72l1 -264c0 -50 9 -83 37 -78c52 12 73 106 73 182c0 204 -159 357 -353 357
c-195 0 -348 -158 -348 -353c0 -253 254 -419 486 -322l26 -43c-265 -126 -581 62 -581 367c0 229 186 413 413 413zM608 462c-122 104 -305 14 -305 -152c0 -170 183 -257 305 -153v305z" />
    <glyph glyph-name="ampersand" unicode="&#x26;" horiz-adv-x="752" 
d="M597 0c-49 0 -91 37 -125 73c-55 -37 -131 -69 -195 -69c-123 0 -237 61 -237 185c0 74 74 141 155 185c-66 58 -106 138 -88 214c17 74 87 108 175 108c90 0 170 -65 170 -155c0 -67 -39 -118 -122 -181l163 -165c21 37 21 54 21 104c0 21 -24 31 -52 31v26h176v-26
c-28 0 -51 -10 -52 -31c-7 -92 -3 -98 -29 -166c34 -50 75 -71 147 -59l8 -39c-25 -11 -73 -35 -115 -35zM273 426c45 29 89 60 90 119c0 78 -101 113 -142 60c-47 -63 -13 -110 20 -148c15 -16 22 -26 32 -31zM290 85c54 7 92 20 125 48l-155 176
c-52 -28 -103 -77 -102 -125c2 -67 57 -99 132 -99z" />
    <glyph glyph-name="copyright" unicode="&#xa9;" horiz-adv-x="860" 
d="M430 700c216 0 390 -174 390 -390s-174 -390 -390 -390s-390 174 -390 390s174 390 390 390zM430 -17c181 0 328 147 328 327c0 181 -147 327 -328 327c-180 0 -327 -146 -327 -327c0 -180 147 -327 327 -327zM618 157c-160 -154 -410 -56 -411 160
c1 218 254 316 413 157l-25 -26c-128 114 -297 28 -298 -134c1 -161 169 -241 294 -131z" />
    <glyph glyph-name="registered" unicode="&#xae;" horiz-adv-x="376" 
d="M188 701c76 0 138 -62 138 -138s-62 -138 -138 -138s-138 62 -138 138s62 138 138 138zM188 450c62 0 113 51 113 113s-51 112 -113 112c-63 0 -112 -50 -112 -112s49 -113 112 -113zM126 489h47v8c-9 1 -13 3 -13 8v51h13c11 0 41 -56 45 -61c8 -8 18 -8 36 -9v12
c-9 1 -18 9 -21 13c-13 17 -12 17 -32 48c13 3 19 15 21 24c6 20 2 39 -13 50c-12 10 -25 8 -83 8v-8c9 0 12 -4 12 -9v-119c-3 -6 -3 -8 -12 -8v-8zM160 624h25c30 0 29 -50 0 -50h-25v50z" />
    <glyph glyph-name="trademark" unicode="&#x2122;" horiz-adv-x="706" 
d="M30 633v73h281v-73h-16c0 17 -5 27 -17 27h-84v-253c0 -12 9 -19 26 -19v-14h-100v14c16 0 27 7 27 19v253h-85c-11 0 -18 -10 -18 -27h-14zM342 374v14c14 0 25 7 25 19v266c0 12 -11 18 -25 18v15h78l86 -178l87 178h83v-15c-16 0 -26 -6 -26 -18v-266
c0 -12 10 -19 26 -19v-14h-99v14c17 0 26 7 26 19v218l-71 -150h-51l-68 139v-207c0 -12 10 -19 27 -19v-14h-98z" />
    <glyph glyph-name="degree" unicode="&#xb0;" horiz-adv-x="321" 
d="M160 690c67 0 121 -54 121 -120c0 -67 -54 -121 -121 -121c-66 0 -120 54 -120 121c0 66 54 120 120 120zM160 499c42 0 71 35 71 71c0 37 -27 70 -71 70c-41 0 -70 -34 -70 -70s26 -71 70 -71z" />
    <glyph glyph-name="bar" unicode="|" horiz-adv-x="162" 
d="M112 3h-62v701h62v-701z" />
    <glyph glyph-name="brokenbar" unicode="&#xa6;" horiz-adv-x="162" 
d="M50 378v326h62v-326h-62zM112 298v-295h-62v295h62z" />
    <glyph glyph-name="uni0308" unicode="&#x308;" horiz-adv-x="0" 
d="M-245 656c-28 0 -49 22 -49 49s21 49 49 49c26 0 48 -22 48 -49s-22 -49 -48 -49zM-99 656c-27 0 -48 22 -48 49s21 49 48 49s49 -22 49 -49s-22 -49 -49 -49z" />
    <glyph glyph-name="uni0307" unicode="&#x307;" horiz-adv-x="0" 
d="M-126 621c-43 0 -77 34 -77 77c0 42 34 76 77 76c42 0 76 -34 76 -76c0 -43 -34 -77 -76 -77z" />
    <glyph glyph-name="gravecomb" unicode="&#x300;" horiz-adv-x="0" 
d="M-193 798c47 27 71 -28 89 -83l41 -108l-33 -20l-71 90c-37 45 -73 96 -26 121z" />
    <glyph glyph-name="acutecomb" unicode="&#x301;" horiz-adv-x="0" 
d="M-73 785c49 -26 11 -75 -24 -120l-70 -93l-32 19l38 110c17 55 42 109 88 84z" />
    <glyph glyph-name="uni0302" unicode="&#x302;" horiz-adv-x="0" 
d="M-196 432l-108 187l-107 -187h-63l153 268h36l152 -268h-63z" />
    <glyph glyph-name="uni030A" unicode="&#x30a;" horiz-adv-x="0" 
d="M-136 800c53 0 96 -43 96 -96s-43 -96 -96 -96s-96 43 -96 96s43 96 96 96zM-136 653c28 0 51 24 51 51c0 28 -23 51 -51 51s-51 -23 -51 -51c0 -27 23 -51 51 -51z" />
    <glyph glyph-name="tildecomb" unicode="&#x303;" horiz-adv-x="0" 
d="M-134 683c-49 0 -115 45 -160 45c-46 0 -37 -46 -66 -46c-50 0 -13 101 66 101c55 0 113 -46 161 -46c47 0 23 56 55 56c54 0 28 -110 -56 -110z" />
    <glyph glyph-name="uni0304" unicode="&#x304;" horiz-adv-x="0" 
d="M-290 691v61h270v-61h-270z" />
    <glyph glyph-name="acute" unicode="&#xb4;" horiz-adv-x="255" 
d="M182 767c49 -26 11 -76 -24 -121l-70 -93l-32 20l38 109c17 56 42 109 88 85z" />
    <glyph glyph-name="dieresis" unicode="&#xa8;" horiz-adv-x="344" 
d="M99 656c-28 0 -49 22 -49 49s21 49 49 49c26 0 48 -22 48 -49s-22 -49 -48 -49zM245 656c-27 0 -48 22 -48 49s21 49 48 49s49 -22 49 -49s-22 -49 -49 -49z" />
    <glyph glyph-name="dotaccent" unicode="&#x2d9;" horiz-adv-x="253" 
d="M127 621c-43 0 -77 34 -77 77c0 42 34 76 77 76c42 0 76 -34 76 -76c0 -43 -34 -77 -76 -77z" />
    <glyph glyph-name="grave" unicode="`" horiz-adv-x="271" 
d="M78 788c47 27 71 -28 89 -83l41 -108l-33 -20l-71 90c-37 45 -73 96 -26 121z" />
    <glyph glyph-name="macron" unicode="&#xaf;" horiz-adv-x="355" 
d="M20 691v61h270v-61h-270z" />
    <glyph glyph-name="ring" unicode="&#x2da;" horiz-adv-x="272" 
d="M136 800c53 0 96 -43 96 -96s-43 -96 -96 -96s-96 43 -96 96s43 96 96 96zM136 653c29 0 51 24 51 51c0 29 -22 51 -51 51c-28 0 -51 -22 -51 -51c0 -27 23 -51 51 -51z" />
    <glyph glyph-name="tilde" unicode="&#x2dc;" horiz-adv-x="341" 
d="M269 719c41 0 23 -85 -39 -85c-37 0 -86 34 -119 34c-34 0 -19 -27 -40 -27c-40 0 -20 69 40 69c41 0 84 -34 119 -34s15 43 39 43z" />
    </font>
</defs>
</svg>
